<svg
  width="20"
  height="20"
  viewBox="0 0 20 20"
  fill="none"
  xmlns="http://www.w3.org/2000/svg"
>
<rect width="20" height="20" fill="white" />
<path
    d="M5.625 5.41663C5.625 3.00038 7.58375 1.04163 10 1.04163C12.4162 1.04163 14.375 3.00038 14.375 5.41663C14.375 7.83287 12.4162 9.79163 10 9.79163C7.58375 9.79163 5.625 7.83287 5.625 5.41663Z"
    fill="#003B5B"
  />
<path
    fill-rule="evenodd"
    clip-rule="evenodd"
    d="M12.7441 12.7441C13.0695 12.4186 13.5971 12.4186 13.9226 12.7441L15.8333 14.6548L17.7441 12.7441C18.0695 12.4186 18.5971 12.4186 18.9226 12.7441C19.248 13.0695 19.248 13.5971 18.9226 13.9226L17.0118 15.8333L18.9226 17.7441C19.248 18.0695 19.248 18.5971 18.9226 18.9226C18.5971 19.248 18.0695 19.248 17.7441 18.9226L15.8333 17.0118L13.9226 18.9226C13.5971 19.248 13.0695 19.248 12.7441 18.9226C12.4186 18.5971 12.4186 18.0695 12.7441 17.7441L14.6548 15.8333L12.7441 13.9226C12.4186 13.5971 12.4186 13.0695 12.7441 12.7441Z"
    fill="#003B5B"
  />
<path
    d="M10.5039 11.1354C9.61742 11.0104 8.71592 11.0104 7.82936 11.1354C6.60897 11.3075 5.41558 11.7168 4.3282 12.3643C4.23129 12.422 4.1116 12.4895 3.97609 12.566C3.38208 12.901 2.48405 13.4077 1.86892 14.0098C1.48419 14.3864 1.11864 14.8826 1.05219 15.4906C0.98152 16.1371 1.26358 16.7439 1.82942 17.283C2.80563 18.213 3.97712 18.9583 5.49237 18.9583H10.6646C10.9502 18.9583 11.093 18.9583 11.1658 18.887C11.2388 18.8157 11.2426 18.6395 11.2503 18.2872C11.2618 17.7695 11.4649 17.2552 11.86 16.8601L12.5333 16.1869C12.7 16.0202 12.7833 15.9369 12.7833 15.8333C12.7833 15.7297 12.7 15.6464 12.5333 15.4797L11.86 14.8065C11.0464 13.9929 11.0464 12.6737 11.86 11.8601C11.9999 11.7203 11.9655 11.4583 11.7752 11.4042C11.3571 11.2854 10.9322 11.1958 10.5039 11.1354Z"
    fill="#003B5B"
  />
</svg>
