<svg
  width="14"
  height="14"
  viewBox="0 0 14 14"
  fill="none"
  xmlns="http://www.w3.org/2000/svg"
>
<path
    fill-rule="evenodd"
    clip-rule="evenodd"
    d="M6.9998 12.6C7.38642 12.6 7.69981 12.2866 7.69981 11.9V7.34995H8.7498C9.03296 7.34995 9.28817 7.17943 9.39653 6.91784C9.50489 6.65625 9.44497 6.35518 9.24477 6.15498L7.49477 4.40497C7.22142 4.13161 6.77819 4.13161 6.50484 4.40497L4.75485 6.15498C4.55465 6.35518 4.49476 6.65625 4.60311 6.91784C4.71146 7.17943 4.9667 7.34995 5.24983 7.34995H6.29981V11.9C6.29981 12.2866 6.61319 12.6 6.9998 12.6Z"
    fill="#B2C4CE"
  />
<path
    fill-rule="evenodd"
    clip-rule="evenodd"
    d="M1.40039 2.10002C1.40039 1.71343 1.71379 1.40002 2.10039 1.40002H11.9004C12.287 1.40002 12.6004 1.71343 12.6004 2.10002C12.6004 2.48662 12.287 2.80002 11.9004 2.80002H2.10039C1.71379 2.80002 1.40039 2.48662 1.40039 2.10002Z"
    fill="#B2C4CE"
  />
</svg>
