<svg
  width="72"
  height="72"
  viewBox="0 0 72 72"
  fill="none"
  xmlns="http://www.w3.org/2000/svg"
>
<circle opacity="0.2" cx="36" cy="36" r="36" fill="#FFBA1B" />
<circle cx="36" cy="36" r="30" fill="#FFBA1B" />
<path
    fill-rule="evenodd"
    clip-rule="evenodd"
    d="M36 26.75C36.6904 26.75 37.25 27.3096 37.25 28V34.75H44C44.6904 34.75 45.25 35.3096 45.25 36C45.25 36.6904 44.6904 37.25 44 37.25H37.25V44C37.25 44.6904 36.6904 45.25 36 45.25C35.3096 45.25 34.75 44.6904 34.75 44V37.25H28C27.3096 37.25 26.75 36.6904 26.75 36C26.75 35.3096 27.3096 34.75 28 34.75H34.75V28C34.75 27.3096 35.3096 26.75 36 26.75Z"
    fill="#003B5B"
  />
</svg>
