<svg
  width="20"
  height="20"
  viewBox="0 0 20 20"
  fill="none"
  xmlns="http://www.w3.org/2000/svg"
>
<path
    d="M1.66363 5.90398C2.93689 2.92761 5.97883 1.04175 9.16733 1.04175C12.3557 1.04175 15.3977 2.92761 16.671 5.90398C17.0215 6.72344 17.2122 7.5072 17.2722 8.25703C17.2912 8.49375 17.3006 8.61208 17.2247 8.66708C17.1489 8.722 17.0301 8.67208 16.7925 8.57241C16.0976 8.28075 15.3457 8.12508 14.5852 8.12508C13.9849 8.12508 13.39 8.22206 12.8242 8.40633C12.6445 8.46491 12.5546 8.49416 12.4929 8.46258C12.4312 8.431 12.4014 8.33775 12.3418 8.15126C11.9123 6.8069 10.6528 5.83341 9.16599 5.83341C7.32506 5.83341 5.83268 7.3258 5.83268 9.16675C5.83268 10.8401 7.06572 12.2255 8.67274 12.4638C8.864 12.4922 8.95966 12.5064 9.00075 12.5612C9.04183 12.6159 9.02916 12.7092 9.00375 12.8957C8.81191 14.303 9.26366 15.5416 9.92958 16.5457C10.2302 16.9989 10.5876 17.4242 10.9541 17.814C11.0502 17.9163 11.0982 17.9674 11.1027 18.0262C11.1036 18.0382 11.1032 18.0497 11.1016 18.0617C11.0934 18.12 11.0428 18.1674 10.9417 18.2621C10.4625 18.7107 9.82591 18.9584 9.16733 18.9584C8.50866 18.9584 7.87213 18.7107 7.39294 18.2622L7.39156 18.2608C7.13302 18.0172 6.86424 17.7687 6.5898 17.5149L6.58887 17.5141C5.14797 16.1816 3.55083 14.7046 2.45578 13.0497C1.12015 11.0312 0.478664 8.67391 1.66363 5.90398Z"
    fill="#003B5B"
  />
<path
    fill-rule="evenodd"
    clip-rule="evenodd"
    d="M14.5841 9.375C12.8744 9.375 11.2355 10.3827 10.5462 11.9903C9.9014 13.4942 10.2581 14.781 10.9702 15.8547C11.5445 16.7207 12.3824 17.4933 13.1125 18.1666C13.2502 18.2936 13.3841 18.4171 13.5117 18.5369L13.5129 18.5381C13.804 18.81 14.1884 18.9583 14.5841 18.9583C14.9797 18.9583 15.3641 18.81 15.6552 18.5381C15.7762 18.4251 15.9026 18.3089 16.0325 18.1896C16.77 17.512 17.619 16.732 18.1992 15.8551C18.9105 14.7803 19.2659 13.4923 18.622 11.9903C17.9327 10.3827 16.2937 9.375 14.5841 9.375ZM14.5765 12.0833C13.6602 12.0833 12.9173 12.8295 12.9173 13.75C12.9173 14.6705 13.6602 15.4167 14.5765 15.4167H14.5914C15.5077 15.4167 16.2507 14.6705 16.2507 13.75C16.2507 12.8295 15.5077 12.0833 14.5914 12.0833H14.5765Z"
    fill="#003B5B"
  />
</svg>
