<svg
  width="14"
  height="14"
  viewBox="0 0 14 14"
  fill="none"
  xmlns="http://www.w3.org/2000/svg"
>
<g clip-path="url(#clip0_1969_1104)">
<path
      d="M12.6809 3.85059C11.5867 2.35738 9.55689 1.8609 7.89333 2.64972C7.19144 2.98253 6.49156 3.32219 5.79302 3.66119C5.44627 3.82946 5.09983 3.9976 4.75368 4.16463C4.44375 4.31419 4.30818 4.33904 4.21548 4.32188C4.12511 4.30515 4.00913 4.23574 3.78019 3.98108C3.66525 3.85324 3.56557 3.71265 3.4481 3.58687C3.31835 3.44794 3.13457 3.2844 2.89243 3.23469C2.78087 3.21178 2.67622 3.21912 2.57245 3.23764C2.29508 3.28712 1.99345 3.35886 1.73122 3.46321C1.33992 3.61893 1.11938 3.95223 1.17981 4.37105C1.2004 4.51369 1.2458 4.68405 1.29815 4.88045L1.46687 5.51367C1.59351 5.98894 1.69593 6.37333 1.818 6.66478C1.94508 6.96816 2.10855 7.2095 2.37983 7.36267C2.65021 7.51533 2.9432 7.53278 3.2728 7.489C3.59076 7.44678 3.98136 7.34155 4.46627 7.21089L5.82001 6.84611C5.86012 6.83533 5.89745 6.87072 5.8888 6.91133L5.71413 7.72955C5.62693 8.138 6.00622 8.47461 6.3965 8.36944L7.65272 8.031C8.00422 7.93628 8.30567 7.70816 8.49017 7.3955C8.49322 7.39028 8.49611 7.385 8.49883 7.37961L9.18067 6.03072C9.21439 5.964 9.27444 5.91533 9.34533 5.89622L12.2116 5.12393C12.7341 4.98209 13.0359 4.34301 12.6822 3.85235L12.6809 3.85059Z"
      fill="#003B5B"
    />
<path
      fill-rule="evenodd"
      clip-rule="evenodd"
      d="M0.888672 11.4445C0.888672 11.1376 1.13741 10.8889 1.44423 10.8889H10.3331C10.6399 10.8889 10.8887 11.1376 10.8887 11.4445C10.8887 11.7513 10.6399 12 10.3331 12H1.44423C1.13741 12 0.888672 11.7513 0.888672 11.4445Z"
      fill="#003B5B"
    />
</g>
<defs>
<clipPath id="clip0_1969_1104">
<rect
        width="13.3333"
        height="13.3333"
        fill="white"
        transform="translate(0.333008 0.333374)"
      />
</clipPath>
</defs>
</svg>
