<svg
  width="36"
  height="36"
  viewBox="0 0 36 36"
  fill="none"
  xmlns="http://www.w3.org/2000/svg"
>
<path
    fill-rule="evenodd"
    clip-rule="evenodd"
    d="M13.9855 5.70492C15.7824 2.59836 20.2161 2.59836 22.013 5.70492L33.4807 25.5314C35.2812 28.644 33.0937 32.625 29.467 32.625H6.53141C2.90466 32.625 0.71728 28.644 2.51766 25.5314L13.9855 5.70492ZM16.5 24C16.5 23.1716 17.1716 22.5 18 22.5H18.0135C18.842 22.5 19.5135 23.1716 19.5135 24C19.5135 24.8284 18.842 25.5 18.0135 25.5H18C17.1716 25.5 16.5 24.8284 16.5 24ZM19.5 13.5C19.5 12.6716 18.8285 12 18 12C17.1716 12 16.5 12.6716 16.5 13.5V19.5C16.5 20.3284 17.1716 21 18 21C18.8285 21 19.5 20.3284 19.5 19.5V13.5Z"
    fill="white"
  />
</svg>
