<svg
  width="14"
  height="14"
  viewBox="0 0 14 14"
  fill="none"
  xmlns="http://www.w3.org/2000/svg"
>
<path
    fill-rule="evenodd"
    clip-rule="evenodd"
    d="M3.0852 2.48621H6.19561C6.56495 2.48619 6.88328 2.48617 7.13811 2.52043C7.41123 2.55716 7.67306 2.63997 7.88539 2.85233C8.09778 3.06468 8.18056 3.3265 8.21728 3.59963C8.23884 3.75975 8.24684 3.9449 8.24978 4.15202L8.25067 4.15288L8.2515 4.15375V6.23621C8.2515 6.46632 8.43806 6.65287 8.66817 6.65287C8.89828 6.65287 9.08484 6.46632 9.08484 6.23621V4.33686C9.08484 4.24286 9.16384 4.16748 9.25734 4.17675C9.51278 4.20204 9.743 4.25622 9.96461 4.38169C10.1848 4.50638 10.3532 4.67697 10.5134 4.88441C10.7045 5.13172 10.8687 5.39956 11.0366 5.66273C11.2888 6.05815 11.6 6.38426 11.9867 6.64921C12.3606 6.90532 12.658 7.10898 12.8228 7.44498C12.9078 7.61837 12.9427 7.79498 12.9587 7.98265C12.9614 8.01465 12.9359 8.04176 12.9038 8.04176H12.4182C12.1881 8.04176 12.0015 8.22832 12.0015 8.45843C12.0015 8.68854 12.1881 8.87509 12.4182 8.87509H12.6386C12.7982 8.87509 12.8781 8.8751 12.9273 8.92626C12.9764 8.97743 12.9734 9.05493 12.9672 9.20993C12.9632 9.31032 12.9568 9.40348 12.9465 9.48871C12.9174 9.72815 12.8519 9.96559 12.6753 10.1653C12.4938 10.3707 12.2436 10.4743 11.9758 10.5117C11.8988 10.5225 11.8369 10.4524 11.8462 10.3752C11.8559 10.2932 11.861 10.2098 11.861 10.1251C11.861 8.97448 10.9283 8.04176 9.77767 8.04176C8.63534 8.04176 7.69128 8.99693 7.69439 10.1368C7.6955 10.3413 7.69606 10.4435 7.64717 10.4927C7.59834 10.5418 7.50828 10.5418 7.32822 10.5418H6.67156C6.4915 10.5418 6.4015 10.5418 6.35261 10.4927C6.30372 10.4435 6.30428 10.3413 6.30539 10.1368C6.3085 8.99693 5.36444 8.04176 4.22211 8.04176C3.07152 8.04176 2.13878 8.97448 2.13878 10.1251C2.13878 10.2461 2.1491 10.3647 2.16889 10.48C2.17159 10.4957 2.15848 10.5097 2.14272 10.5075C1.86959 10.4708 1.60778 10.388 1.39542 10.1757C1.18306 9.96332 1.10025 9.70148 1.06353 9.42837C1.02926 9.17348 1.02928 8.85526 1.0293 8.48593V4.54211C1.02928 4.17278 1.02926 3.85447 1.06353 3.59963C1.10025 3.3265 1.18306 3.06468 1.39542 2.85233C1.60778 2.63997 1.86959 2.55716 2.14272 2.52043C2.39756 2.48617 2.71587 2.48619 3.0852 2.48621ZM5.19596 4.56954C5.19596 4.33942 5.00941 4.15287 4.7793 4.15287C4.54918 4.15287 4.36263 4.33942 4.36263 4.56954V5.26398H3.66819C3.43807 5.26398 3.25152 5.45053 3.25152 5.68065C3.25152 5.91076 3.43807 6.09732 3.66819 6.09732H4.36263V6.79176C4.36263 7.02187 4.54918 7.20843 4.7793 7.20843C5.00941 7.20843 5.19596 7.02187 5.19596 6.79176V6.09732H5.89039C6.1205 6.09732 6.30706 5.91076 6.30706 5.68065C6.30706 5.45053 6.1205 5.26398 5.89039 5.26398H5.19596V4.56954Z"
    fill="#003B5B"
  />
<path
    d="M9.77756 11.514C10.5446 11.514 11.1664 10.8922 11.1664 10.1251C11.1664 9.35803 10.5446 8.73621 9.77756 8.73621C9.0105 8.73621 8.38867 9.35803 8.38867 10.1251C8.38867 10.8922 9.0105 11.514 9.77756 11.514Z"
    fill="#003B5B"
  />
<path
    d="M4.22287 11.514C4.98994 11.514 5.61176 10.8922 5.61176 10.1251C5.61176 9.35803 4.98994 8.73621 4.22287 8.73621C3.45581 8.73621 2.83398 9.35803 2.83398 10.1251C2.83398 10.8922 3.45581 11.514 4.22287 11.514Z"
    fill="#003B5B"
  />
</svg>
