<svg
  width="24"
  height="24"
  viewBox="0 0 24 24"
  fill="none"
  xmlns="http://www.w3.org/2000/svg"
>
<path
    fill-rule="evenodd"
    clip-rule="evenodd"
    d="M21 12C21 11.4477 20.5523 11 20 11H4C3.4477 11 3 11.4477 3 12C3 12.5523 3.4477 13 4 13H20C20.5523 13 21 12.5523 21 12Z"
    fill="white"
  />
<path
    d="M18.9721 12C18.8788 12.1548 18.6832 12.4329 18.4694 12.6749C18.0436 13.1568 17.4569 13.7072 16.8444 14.2389C16.2369 14.7664 15.6264 15.2564 15.166 15.6156C14.9364 15.7948 14.5401 16.0942 14.4069 16.1948C13.9623 16.5223 13.8673 17.1483 14.1948 17.5929C14.5223 18.0376 15.1483 18.1326 15.593 17.8051L15.5967 17.8023C15.7411 17.6933 16.1597 17.3771 16.3965 17.1923C16.8736 16.82 17.5131 16.307 18.1556 15.7492C18.7931 15.1957 19.4564 14.5784 19.9681 13.9992C20.223 13.7108 20.4614 13.4082 20.6416 13.1094C20.8052 12.838 21 12.4432 21 12C21 11.5569 20.8052 11.162 20.6416 10.8906C20.4614 10.5918 20.223 10.2892 19.9681 10.0008C19.4564 9.4216 18.7931 8.80434 18.1556 8.25084C17.5131 7.69303 16.8736 7.18002 16.3965 6.80767C16.1597 6.62291 15.7414 6.30693 15.597 6.19788L15.593 6.19487C15.1483 5.86736 14.5223 5.96236 14.1948 6.40706C13.8673 6.85173 13.9623 7.47768 14.4069 7.80521C14.5401 7.90576 14.9364 8.20515 15.166 8.38437C15.6264 8.74365 16.2369 9.23357 16.8444 9.76105C17.4569 10.2928 18.0436 10.8432 18.4694 11.3251C18.6832 11.5671 18.8788 11.8452 18.9721 12Z"
    fill="white"
  />
</svg>
