<svg width="48" height="48" viewBox="0 0 48 48" fill="none" xmlns="http://www.w3.org/2000/svg">
<circle cx="24" cy="24" r="24" fill="#003B5B"/>
<path fill-rule="evenodd" clip-rule="evenodd" d="M15 24C15 23.4477 15.4477 23 16 23H32C32.5523 23 33 23.4477 33 24C33 24.5523 32.5523 25 32 25H16C15.4477 25 15 24.5523 15 24Z" fill="white"/>
<path d="M17.0279 24C17.1212 24.1548 17.3168 24.4329 17.5306 24.6749C17.9564 25.1568 18.5431 25.7072 19.1556 26.2389C19.7631 26.7664 20.3736 27.2564 20.834 27.6156C21.0636 27.7948 21.4599 28.0942 21.5931 28.1948C22.0377 28.5223 22.1327 29.1483 21.8052 29.5929C21.4777 30.0376 20.8517 30.1326 20.407 29.8051L20.4033 29.8023C20.2589 29.6933 19.8403 29.3771 19.6035 29.1923C19.1264 28.82 18.4869 28.307 17.8444 27.7492C17.2069 27.1957 16.5436 26.5784 16.0319 25.9992C15.777 25.7108 15.5386 25.4082 15.3584 25.1094C15.1948 24.838 15 24.4432 15 24C15 23.5569 15.1948 23.162 15.3584 22.8906C15.5386 22.5918 15.777 22.2892 16.0319 22.0008C16.5436 21.4216 17.2069 20.8043 17.8444 20.2508C18.4869 19.693 19.1264 19.18 19.6035 18.8077C19.8403 18.6229 20.2586 18.3069 20.403 18.1979L20.407 18.1949C20.8517 17.8674 21.4777 17.9624 21.8052 18.4071C22.1327 18.8517 22.0377 19.4777 21.5931 19.8052C21.4599 19.9058 21.0636 20.2051 20.834 20.3844C20.3736 20.7436 19.7631 21.2336 19.1556 21.761C18.5431 22.2928 17.9564 22.8432 17.5306 23.3251C17.3168 23.5671 17.1212 23.8452 17.0279 24Z" fill="white"/>
</svg>
