<svg
  width="24"
  height="24"
  viewBox="0 0 24 24"
  fill="none"
  xmlns="http://www.w3.org/2000/svg"
>
<path
    d="M3.92786 9.27673C3.9279 4.84128 7.54418 1.24976 12 1.24976C16.4558 1.24976 20.0721 4.84131 20.0721 9.27679C20.0722 10.3085 20.1416 11.0871 20.6173 11.787C20.7984 12.0495 21.1413 12.4934 21.3696 12.8503C21.6255 13.2501 21.8754 13.7322 21.9613 14.2939C22.2416 16.1267 20.9494 17.3134 19.6625 17.8451C15.1298 19.718 8.87016 19.718 4.33747 17.8451C3.05055 17.3134 1.75837 16.1267 2.03868 14.2939C2.1246 13.7322 2.37453 13.2501 2.63034 12.8503C2.85874 12.4933 3.20169 12.0494 3.38272 11.787C3.85839 11.0871 3.92777 10.3084 3.92786 9.27673Z"
    fill="#003B5B"
  />
<path
    d="M14.7776 21.951C13.9742 22.4563 13.0187 22.7477 11.9984 22.7477C10.9782 22.7477 10.0227 22.4563 9.21934 21.951C8.50629 21.5026 8.14977 21.2784 8.27453 20.9057C8.3993 20.533 8.89126 20.5747 9.87518 20.6582C11.2823 20.7775 12.7145 20.7775 14.1217 20.6582C15.1056 20.5747 15.5976 20.533 15.7224 20.9057C15.8471 21.2784 15.4906 21.5026 14.7776 21.951Z"
    fill="#003B5B"
  />
</svg>
