<svg
  width="16"
  height="16"
  viewBox="0 0 16 16"
  fill="none"
  xmlns="http://www.w3.org/2000/svg"
>
<path
    fill-rule="evenodd"
    clip-rule="evenodd"
    d="M8.57143 2.5612H6.71429V2.77488L6.73749 2.7863C6.85411 2.84489 6.98331 2.92796 7.12 3.01586L8.34216 3.80153C8.58471 3.95746 8.79136 4.09031 8.95297 4.21722C9.12549 4.3527 9.27188 4.50006 9.37926 4.69669C9.40502 4.74387 9.42717 4.7914 9.44626 4.83942L6.52353 7.76215C6.44619 7.74919 6.36674 7.74244 6.28571 7.74244C5.49674 7.74244 4.85714 8.38204 4.85714 9.17101V9.42854L2.39969 11.886H0.571429C0.25584 11.886 0 11.6302 0 11.3146C0 10.999 0.25584 10.7431 0.571429 10.7431H0.714286V8.12171C0.714286 7.74679 0.765011 7.40474 0.903309 7.10354C1.04698 6.79068 1.26636 6.56257 1.5344 6.39194C1.78961 6.22948 2.08676 6.12062 2.39084 6.03034C2.57594 5.97535 2.78161 5.9223 3.00002 5.86776C3.00018 5.61439 3.00187 5.49956 3.01938 5.31457C3.04005 5.09617 3.08482 4.89332 3.19217 4.69669C3.29952 4.50006 3.44595 4.3527 3.61847 4.21722C3.78037 4.09009 3.98742 3.957 4.23053 3.80073L5.45143 3.01586C5.58811 2.92796 5.71731 2.84489 5.83394 2.7863L5.85715 2.77488V0.96331C5.85709 0.845287 5.85704 0.718115 5.87138 0.610847C5.88812 0.485521 5.93121 0.325292 6.06549 0.190201C6.29412 -0.0398104 6.61258 -0.00866179 6.77081 0.0190868C6.96526 0.0531839 7.17441 0.130104 7.36326 0.212544C7.74624 0.379715 8.14018 0.612018 8.35058 0.741584C8.89755 1.07839 9.00001 1.7115 9.00001 2.13262C9.00001 2.36931 8.80812 2.5612 8.57143 2.5612ZM3 7.04713V10.7431H1.85714V8.12171C1.85714 7.84188 1.89636 7.67965 1.94191 7.58045C1.98209 7.49291 2.04049 7.42451 2.1481 7.35605C2.26854 7.27937 2.44494 7.20645 2.71626 7.12588C2.80538 7.09939 2.89951 7.07351 3 7.04713ZM6.28571 5.45742C5.97011 5.45742 5.71429 5.71324 5.71429 6.02884C5.71429 6.34444 5.97011 6.60027 6.28571 6.60027H6.29086C6.60646 6.60027 6.86229 6.34444 6.86229 6.02884C6.86229 5.71324 6.60646 5.45742 6.29086 5.45742H6.28571Z"
    fill="#003B5B"
  />
<path
    fill-rule="evenodd"
    clip-rule="evenodd"
    d="M5.00781 12.5223C5.08233 12.8649 5.21716 13.1703 5.47137 13.4249C5.63546 13.5892 5.8207 13.7037 6.0234 13.7844V14.6128C6.0234 14.8872 6.24586 15.1097 6.52028 15.1097C6.7947 15.1097 7.01717 14.8872 7.01717 14.6128V13.9703C7.36971 13.9917 7.78079 13.9917 8.25122 13.9917H10.2551C10.7256 13.9917 11.1366 13.9917 11.4891 13.9703V14.6128C11.4891 14.8872 11.7116 15.1097 11.986 15.1097C12.2605 15.1097 12.4829 14.8872 12.4829 14.6128V13.7844C12.6856 13.7037 12.8709 13.5892 13.035 13.4249C13.3519 13.1074 13.4833 12.711 13.5436 12.2621C13.6009 11.8349 13.6009 11.2953 13.6009 10.6409V9.11644C13.6009 8.23505 13.6009 7.52453 13.5259 6.96564C13.4479 6.385 13.2812 5.89611 12.8934 5.50782C12.7402 5.35435 12.5713 5.23545 12.3872 5.14294L10.3706 7.15951H12.3118C12.4387 7.15951 12.5022 7.15951 12.545 7.19936C12.5879 7.23922 12.5924 7.30041 12.6015 7.42281C12.6341 7.86472 12.6347 8.42163 12.6347 9.15361V9.84269C12.6347 9.98321 12.6347 10.0535 12.591 10.0971C12.5474 10.1408 12.4771 10.1408 12.3365 10.1408H10.0482C9.90766 10.1408 9.83735 10.1408 9.79372 10.0971C9.75005 10.0535 9.75005 9.98321 9.75005 9.84269V7.7801L8.75627 8.77387V9.84269C8.75627 9.98321 8.75627 10.0535 8.7126 10.0971C8.66897 10.1408 8.59866 10.1408 8.45814 10.1408H7.38932L5.00781 12.5223ZM6.27184 12.1284C6.27184 11.8539 6.49431 11.6315 6.76873 11.6315H7.26561C7.54004 11.6315 7.7625 11.8539 7.7625 12.1284C7.7625 12.4028 7.54004 12.6253 7.26561 12.6253H6.76873C6.49431 12.6253 6.27184 12.4028 6.27184 12.1284ZM10.7438 12.1284C10.7438 11.8539 10.9663 11.6315 11.2407 11.6315H11.7376C12.012 11.6315 12.2345 11.8539 12.2345 12.1284C12.2345 12.4028 12.012 12.6253 11.7376 12.6253H11.2407C10.9663 12.6253 10.7438 12.4028 10.7438 12.1284ZM14.4705 7.65639C14.7449 7.65639 14.9674 7.87886 14.9674 8.15328V9.14705C14.9674 9.42148 14.7449 9.64394 14.4705 9.64394C14.196 9.64394 13.9736 9.42148 13.9736 9.14705V8.15328C13.9736 7.87886 14.196 7.65639 14.4705 7.65639Z"
    fill="#003B5B"
  />
</svg>
