<svg
  width="16"
  height="16"
  viewBox="0 0 16 16"
  fill="none"
  xmlns="http://www.w3.org/2000/svg"
>
<path
    d="M4.66634 1.33329C4.66634 0.965106 4.36786 0.666626 3.99967 0.666626C3.63149 0.666626 3.33301 0.965106 3.33301 1.33329V1.63253C3.58655 1.5521 3.8567 1.49468 4.14323 1.45303C4.30853 1.42901 4.48282 1.4098 4.66634 1.39445V1.33329Z"
    fill="#003B5B"
  />
<path
    d="M12.6663 1.63253C12.4128 1.5521 12.1427 1.49468 11.8561 1.45303C11.6908 1.42901 11.5165 1.4098 11.333 1.39445V1.33329C11.333 0.965106 11.6315 0.666626 11.9997 0.666626C12.3679 0.666626 12.6663 0.965106 12.6663 1.33329V1.63253Z"
    fill="#003B5B"
  />
<path
    fill-rule="evenodd"
    clip-rule="evenodd"
    d="M8.68587 1.33337H7.31413C6.01529 1.33335 4.96761 1.33333 4.14355 1.45311C3.28357 1.57811 2.5712 1.84525 2.01201 2.44977C1.45966 3.04691 1.22186 3.79519 1.10944 4.69915C0.99998 5.57933 0.999987 6.70277 1 8.11597V8.55078C0.999987 9.96397 0.99998 11.0874 1.10944 11.9676C1.22186 12.8716 1.45966 13.6198 2.01201 14.217C2.5712 14.8215 3.28357 15.0886 4.14355 15.2136C4.96761 15.3334 6.01529 15.3334 7.31413 15.3334H8.68587C9.98473 15.3334 11.0324 15.3334 11.8565 15.2136C12.7165 15.0886 13.4288 14.8215 13.988 14.217C14.5403 13.6198 14.7781 12.8716 14.8905 11.9676C15 11.0874 15 9.96397 15 8.55078V8.11597C15 6.70277 15 5.57934 14.8905 4.69915C14.7781 3.79519 14.5403 3.04691 13.988 2.44977C13.4288 1.84525 12.7165 1.57811 11.8565 1.45311C11.0324 1.33333 9.98473 1.33335 8.68587 1.33337ZM2.99855 6.00004C2.69281 6.00004 2.53993 6.00004 2.44257 6.09615C2.34521 6.19226 2.34325 6.34319 2.33933 6.64505C2.33351 7.09384 2.33333 7.59618 2.33333 8.16218V8.50457C2.33333 9.97444 2.33455 11.0148 2.43258 11.803C2.52885 12.5771 2.70842 13.0063 2.99081 13.3116C3.26637 13.6095 3.64313 13.7936 4.33533 13.8942C5.05239 13.9984 6.00283 14 7.36667 14H8.63333C9.99713 14 10.9476 13.9984 11.6647 13.8942C12.3569 13.7936 12.7336 13.6095 13.0092 13.3116C13.2916 13.0063 13.4711 12.5771 13.5674 11.803C13.6655 11.0148 13.6667 9.97444 13.6667 8.50457V8.16218C13.6667 7.59618 13.6665 7.09384 13.6607 6.64505C13.6567 6.34319 13.6548 6.19226 13.5575 6.09615C13.4601 6.00004 13.3072 6.00004 13.0015 6.00004H2.99855Z"
    fill="#003B5B"
  />
<path
    fill-rule="evenodd"
    clip-rule="evenodd"
    d="M4.5 8.66671C4.5 8.20644 4.87309 7.83337 5.33333 7.83337H5.33931C5.79955 7.83337 6.17265 8.20644 6.17265 8.66671C6.17265 9.12697 5.79955 9.50004 5.33931 9.50004H5.33333C4.87309 9.50004 4.5 9.12697 4.5 8.66671ZM7.16367 8.66671C7.16367 8.20644 7.5368 7.83337 7.997 7.83337H8.003C8.4632 7.83337 8.83633 8.20644 8.83633 8.66671C8.83633 9.12697 8.4632 9.50004 8.003 9.50004H7.997C7.5368 9.50004 7.16367 9.12697 7.16367 8.66671ZM9.82733 8.66671C9.82733 8.20644 10.2005 7.83337 10.6607 7.83337H10.6667C11.1269 7.83337 11.5 8.20644 11.5 8.66671C11.5 9.12697 11.1269 9.50004 10.6667 9.50004H10.6607C10.2005 9.50004 9.82733 9.12697 9.82733 8.66671ZM4.5 11.3334C4.5 10.8731 4.87309 10.5 5.33333 10.5H5.33931C5.79955 10.5 6.17265 10.8731 6.17265 11.3334C6.17265 11.7936 5.79955 12.1667 5.33931 12.1667H5.33333C4.87309 12.1667 4.5 11.7936 4.5 11.3334ZM7.16367 11.3334C7.16367 10.8731 7.5368 10.5 7.997 10.5H8.003C8.4632 10.5 8.83633 10.8731 8.83633 11.3334C8.83633 11.7936 8.4632 12.1667 8.003 12.1667H7.997C7.5368 12.1667 7.16367 11.7936 7.16367 11.3334Z"
    fill="#003B5B"
  />
</svg>
