<svg
  width="20"
  height="20"
  viewBox="0 0 20 20"
  fill="none"
  xmlns="http://www.w3.org/2000/svg"
>
<path
    fill-rule="evenodd"
    clip-rule="evenodd"
    d="M10 3.33329C7.29055 3.33329 5.26225 5.07901 5.02358 7.10048C5.12536 7.14415 5.22345 7.18899 5.31235 7.22968C5.60914 7.36228 6.16876 7.61231 6.38192 8.24322C6.45944 8.47263 6.45883 8.71796 6.45826 8.94621V12.7204C6.45883 12.9486 6.45944 13.1939 6.38192 13.4234C6.16876 14.0543 5.60914 14.3043 5.31235 14.4369C5.00992 14.5753 4.60094 14.762 4.30285 14.7861C3.97171 14.8129 3.63646 14.7421 3.3456 14.5789C3.08143 14.4306 2.8831 14.1887 2.68223 13.9435C2.60959 13.8554 2.4721 13.6931 2.37551 13.5812C2.19896 13.3766 1.9985 13.1444 1.83321 12.928C1.56017 12.5707 1.28656 12.1425 1.15065 11.645C1.00512 11.1123 1.00512 10.5543 1.15065 10.0215C1.24927 9.66054 1.42771 9.34196 1.66326 9.00754C1.89137 8.68371 2.27987 8.20911 2.65988 7.74755C2.72115 7.66985 2.80538 7.56303 2.86766 7.4917C2.98045 7.3625 3.13651 7.20503 3.3456 7.08768L3.3495 7.08548C3.59444 3.95789 6.59212 1.66663 10 1.66663C13.4079 1.66663 16.4056 3.95789 16.6505 7.08549L16.6544 7.08768C16.8635 7.20503 17.0196 7.3625 17.1324 7.4917C17.1947 7.56303 17.2789 7.66984 17.3402 7.74754C17.7202 8.2091 18.1087 8.68371 18.3368 9.00754C18.5724 9.34196 18.7508 9.66054 18.8494 10.0215C18.9949 10.5543 18.9949 11.1123 18.8494 11.645C18.7135 12.1425 18.4399 12.5707 18.1669 12.928C18.0015 13.1444 17.8011 13.3766 17.6246 13.5812C17.528 13.6931 17.3904 13.8554 17.3179 13.9435C17.1201 14.1848 16.9248 14.4231 16.6667 14.572V14.8333C16.6667 16.9302 14.6181 18.3333 12.5 18.3333H10.8334C10.3731 18.3333 10 17.9602 10 17.5C10 17.0397 10.3731 16.6666 10.8334 16.6666H12.5C14.0639 16.6666 15 15.6819 15 14.8333V14.5761C14.8899 14.5294 14.7834 14.4807 14.6877 14.4369C14.3909 14.3043 13.8313 14.0543 13.6181 13.4234C13.5406 13.1939 13.5412 12.9486 13.5418 12.7204V8.94621C13.5412 8.71796 13.5406 8.47263 13.6181 8.24322C13.8313 7.61231 14.3909 7.36228 14.6877 7.22968C14.7766 7.18899 14.8747 7.14415 14.9764 7.10048C14.7378 5.07901 12.7095 3.33329 10 3.33329Z"
    fill="#003B5B"
  />
</svg>
