<svg
  width="24"
  height="24"
  viewBox="0 0 24 24"
  fill="none"
  xmlns="http://www.w3.org/2000/svg"
>
<path
    fill-rule="evenodd"
    clip-rule="evenodd"
    d="M19.8839 4.11612C20.3721 4.60428 20.3721 5.39573 19.8839 5.88389L5.88389 19.8839C5.39573 20.372 4.60428 20.372 4.11612 19.8839C3.62796 19.3957 3.62796 18.6043 4.11612 18.1161L18.1161 4.11612C18.6043 3.62796 19.3957 3.62796 19.8839 4.11612Z"
    fill="#003B5B"
  />
<path
    fill-rule="evenodd"
    clip-rule="evenodd"
    d="M4.11612 4.11612C4.60428 3.62796 5.39573 3.62796 5.88389 4.11612L19.8839 18.1161C20.3721 18.6043 20.3721 19.3957 19.8839 19.8839C19.3957 20.372 18.6043 20.372 18.1161 19.8839L4.11612 5.88389C3.62796 5.39573 3.62796 4.60428 4.11612 4.11612Z"
    fill="#003B5B"
  />
</svg>
