<svg width="48" height="48" viewBox="0 0 48 48" fill="none" xmlns="http://www.w3.org/2000/svg">
<circle cx="24" cy="24" r="24" fill="white"/>
<path fill-rule="evenodd" clip-rule="evenodd" d="M31.8839 16.1161C32.3721 16.6043 32.3721 17.3957 31.8839 17.8839L17.8839 31.8839C17.3957 32.372 16.6043 32.372 16.1161 31.8839C15.628 31.3957 15.628 30.6043 16.1161 30.1161L30.1161 16.1161C30.6043 15.628 31.3957 15.628 31.8839 16.1161Z" fill="#003B5B"/>
<path fill-rule="evenodd" clip-rule="evenodd" d="M16.1161 16.1161C16.6043 15.628 17.3957 15.628 17.8839 16.1161L31.8839 30.1161C32.3721 30.6043 32.3721 31.3957 31.8839 31.8839C31.3957 32.372 30.6043 32.372 30.1161 31.8839L16.1161 17.8839C15.628 17.3957 15.628 16.6043 16.1161 16.1161Z" fill="#003B5B"/>
</svg>
