<svg width="20" height="20" viewBox="0 0 20 20" fill="none" xmlns="http://www.w3.org/2000/svg">
<path fill-rule="evenodd" clip-rule="evenodd" d="M3.86436 16.8054L3.1868 5.62578L3.11169 4.22185C3.10404 4.07874 3.21802 3.9585 3.36133 3.9585H16.6618C16.8068 3.9585 16.9214 4.08142 16.9113 4.22605L16.8128 5.62578L16.1352 16.8054C16.0618 18.015 15.0595 18.9585 13.8478 18.9585H6.15183C4.94002 18.9585 3.93767 18.015 3.86436 16.8054ZM7.29113 13.7502C7.29113 14.0953 7.57095 14.3752 7.91613 14.3752C8.26131 14.3752 8.5411 14.0953 8.5411 13.7502V8.75018C8.5411 8.40501 8.26131 8.12516 7.91613 8.12516C7.57095 8.12516 7.29113 8.40501 7.29113 8.75018V13.7502ZM12.0828 8.12516C12.4279 8.12516 12.7078 8.40501 12.7078 8.75018V13.7502C12.7078 14.0953 12.4279 14.3752 12.0828 14.3752C11.7376 14.3752 11.4578 14.0953 11.4578 13.7502V8.75018C11.4578 8.40501 11.7376 8.12516 12.0828 8.12516Z" fill="#F57070"/>
<path fill-rule="evenodd" clip-rule="evenodd" d="M6.93263 2.05261C7.19526 1.43981 7.79782 1.04248 8.46456 1.04248H11.5322C12.1989 1.04248 12.8015 1.43981 13.0641 2.05261L13.8811 3.95885H16.0202C16.0756 3.95885 16.1272 3.95885 16.1755 3.95915H16.2201C16.2384 3.95834 16.2569 3.95833 16.2756 3.95915H17.4984C17.9586 3.95915 18.3317 4.33225 18.3317 4.79248C18.3317 5.25272 17.9586 5.62581 17.4984 5.62581H2.49837C2.03814 5.62581 1.66504 5.25272 1.66504 4.79248C1.66504 4.33225 2.03814 3.95915 2.49837 3.95915H3.7212C3.73986 3.95833 3.75837 3.95834 3.7767 3.95915H3.82088C3.86914 3.95885 3.92078 3.95885 3.97608 3.95885H6.11567L6.93263 2.05261ZM11.5756 2.81016L12.0678 3.95885H7.92897L8.42131 2.81016C8.44756 2.74888 8.50781 2.70915 8.57447 2.70915H11.4223C11.489 2.70915 11.5492 2.74888 11.5756 2.81016Z" fill="#F57070"/>
</svg>
