<svg width="36" height="36" viewBox="0 0 36 36" fill="none" xmlns="http://www.w3.org/2000/svg">
<circle cx="18" cy="18" r="18" fill="white"/>
<path fill-rule="evenodd" clip-rule="evenodd" d="M17.9997 24.6665C18.4599 24.6665 18.833 24.2934 18.833 23.8332V18.4165H20.083C20.4201 18.4165 20.7239 18.2135 20.8529 17.9021C20.9819 17.5907 20.9106 17.2323 20.6723 16.9939L18.5889 14.9106C18.2635 14.5851 17.7358 14.5851 17.4104 14.9106L15.3271 16.9939C15.0888 17.2323 15.0175 17.5907 15.1465 17.9021C15.2754 18.2135 15.5793 18.4165 15.9164 18.4165H17.1663V23.8332C17.1663 24.2934 17.5394 24.6665 17.9997 24.6665Z" fill="#003B5B"/>
<path fill-rule="evenodd" clip-rule="evenodd" d="M11.333 12.1668C11.333 11.7066 11.7061 11.3335 12.1663 11.3335H23.833C24.2933 11.3335 24.6663 11.7066 24.6663 12.1668C24.6663 12.6271 24.2933 13.0002 23.833 13.0002H12.1663C11.7061 13.0002 11.333 12.6271 11.333 12.1668Z" fill="#003B5B"/>
</svg>
