<svg width="48" height="48" viewBox="0 0 48 48" fill="none" xmlns="http://www.w3.org/2000/svg">
<circle cx="24" cy="24" r="24" fill="#F8F8F8"/>
<path fill-rule="evenodd" clip-rule="evenodd" d="M22 31.75C22 31.1977 22.4477 30.75 23 30.75H29C29.5523 30.75 30 31.1977 30 31.75C30 32.3023 29.5523 32.75 29 32.75H23C22.4477 32.75 22 32.3023 22 31.75Z" fill="#003B5B"/>
<path fill-rule="evenodd" clip-rule="evenodd" d="M26.1538 17.982L18.3694 25.7664C17.4008 26.7347 16.8088 27.3266 16.4017 28.0553C16.1745 28.4617 15.9761 29.0782 15.8006 29.709C15.62 30.358 15.4422 31.1047 15.2725 31.8175L15.2704 31.8263C15.2101 32.0796 15.2855 32.3462 15.4697 32.5303C15.6538 32.7145 15.9204 32.7899 16.1737 32.7296L16.1824 32.7275C16.8951 32.5578 17.6421 32.38 18.291 32.1994C18.9218 32.0239 19.5383 31.8255 19.9448 31.5983C20.6734 31.1912 21.2653 30.5992 22.2337 29.6306L30.018 21.8462L26.1538 17.982ZM31.0786 20.7856L31.9497 19.9145C33.0168 18.8474 33.0168 17.1174 31.9497 16.0503C30.8827 14.9832 29.1526 14.9832 28.0855 16.0503L27.2145 16.9214L31.0786 20.7856Z" fill="#003B5B"/>
</svg>
