<svg
  width="20"
  height="20"
  viewBox="0 0 20 20"
  fill="none"
  xmlns="http://www.w3.org/2000/svg"
>
<path
    fill-rule="evenodd"
    clip-rule="evenodd"
    d="M8.33301 16.4583C8.33301 15.9981 8.70609 15.625 9.16634 15.625H14.1663C14.6266 15.625 14.9997 15.9981 14.9997 16.4583C14.9997 16.9186 14.6266 17.2917 14.1663 17.2917H9.16634C8.70609 17.2917 8.33301 16.9186 8.33301 16.4583Z"
    fill="#003B5B"
  />
<path
    fill-rule="evenodd"
    clip-rule="evenodd"
    d="M11.7945 4.98519L5.30755 11.4722C4.50037 12.2791 4.00704 12.7723 3.66773 13.3796C3.47847 13.7182 3.31313 14.232 3.16684 14.7577C3.01634 15.2985 2.86818 15.9207 2.72675 16.5147L2.72502 16.5221C2.67475 16.7332 2.73761 16.9553 2.89108 17.1087C3.04455 17.2622 3.26665 17.3251 3.47778 17.2748L3.48502 17.2731C4.07891 17.1317 4.70146 16.9835 5.24216 16.833C5.76786 16.6867 6.28161 16.5214 6.62031 16.3321C7.22752 15.9928 7.72072 15.4995 8.52776 14.6923L15.0147 8.20535L11.7945 4.98519ZM15.8985 7.32146L16.6244 6.59557C17.5137 5.70635 17.5137 4.26463 16.6244 3.37541C15.7353 2.48619 14.2935 2.48619 13.4043 3.37541L12.6784 4.10131L15.8985 7.32146Z"
    fill="#003B5B"
  />
</svg>
