<svg
  width="20"
  height="20"
  viewBox="0 0 20 20"
  fill="none"
  xmlns="http://www.w3.org/2000/svg"
>
<path
    fill-rule="evenodd"
    clip-rule="evenodd"
    d="M12.4332 2.3223C10.8057 2.2814 9.194 2.2814 7.56649 2.32229L7.51802 2.32351C6.24734 2.35542 5.22485 2.38109 4.40542 2.52379C3.5475 2.6732 2.85024 2.95977 2.26119 3.55106C1.67459 4.13988 1.38954 4.82713 1.24297 5.67113C1.10341 6.47478 1.08215 7.47229 1.05583 8.70796L1.05478 8.75696C1.03708 9.58721 1.03708 10.4127 1.05479 11.243L1.05583 11.292C1.08216 12.5276 1.10341 13.5251 1.24297 14.3288C1.38954 15.1728 1.6746 15.86 2.26119 16.4489C2.85024 17.0401 3.5475 17.3267 4.40542 17.4761C5.22484 17.6188 6.24731 17.6445 7.51798 17.6764L7.56649 17.6776C9.194 17.7185 10.8057 17.7185 12.4332 17.6776L12.4817 17.6764C13.7523 17.6445 14.7748 17.6188 15.5943 17.4761C16.4522 17.3267 17.1494 17.0401 17.7385 16.4489C18.3251 15.86 18.6102 15.1728 18.7567 14.3288C18.8963 13.5251 18.9175 12.5276 18.9438 11.2919L18.9449 11.243C18.9626 10.4127 18.9626 9.58721 18.9449 8.75696L18.9438 8.70804C18.9175 7.47232 18.8963 6.47479 18.7567 5.67114C18.6102 4.82714 18.3251 4.13989 17.7385 3.55108C17.1494 2.95979 16.4522 2.67322 15.5943 2.52381C14.7748 2.3811 13.7523 2.35543 12.4817 2.32352L12.4332 2.3223ZM6.15135 6.54539C5.85423 6.36972 5.47094 6.46818 5.29527 6.7653C5.11959 7.06244 5.21805 7.44572 5.51518 7.62139L7.96686 9.07088C8.69259 9.49996 9.31875 9.79171 9.99992 9.79171C10.6811 9.79171 11.3073 9.49996 12.033 9.07088L14.4847 7.62139C14.7818 7.44572 14.8803 7.06244 14.7046 6.7653C14.5289 6.46818 14.1457 6.36972 13.8485 6.54539L11.3968 7.99492C10.6932 8.41096 10.3191 8.54171 9.99992 8.54171C9.68075 8.54171 9.30667 8.41096 8.603 7.99492L6.15135 6.54539Z"
    fill="#003B5B"
  />
</svg>
