<svg width="36" height="36" viewBox="0 0 36 36" fill="none" xmlns="http://www.w3.org/2000/svg">
<circle cx="18" cy="18" r="18" fill="#A8DFFC"/>
<path fill-rule="evenodd" clip-rule="evenodd" d="M20.4337 10.3222C18.8062 10.2813 17.1945 10.2813 15.567 10.3222L15.5185 10.3234C14.2478 10.3553 13.2253 10.381 12.4059 10.5237C11.548 10.6731 10.8507 10.9596 10.2617 11.5509C9.67508 12.1398 9.39002 12.827 9.24346 13.671C9.1039 14.4747 9.08264 15.4722 9.05632 16.7078L9.05527 16.7568C9.03757 17.5871 9.03757 18.4126 9.05527 19.2428L9.05632 19.2918C9.08265 20.5275 9.1039 21.525 9.24346 22.3287C9.39002 23.1727 9.67509 23.8599 10.2617 24.4488C10.8507 25.04 11.548 25.3266 12.4059 25.476C13.2253 25.6187 14.2478 25.6444 15.5185 25.6763L15.567 25.6775C17.1945 25.7184 18.8062 25.7184 20.4337 25.6775L20.4822 25.6763C21.7528 25.6444 22.7753 25.6187 23.5947 25.476C24.4527 25.3266 25.1499 25.04 25.739 24.4488C26.3256 23.8599 26.6107 23.1727 26.7572 22.3287C26.8967 21.525 26.918 20.5275 26.9443 19.2918L26.9454 19.2428C26.9631 18.4126 26.9631 17.5871 26.9454 16.7568L26.9443 16.7079C26.918 15.4722 26.8967 14.4747 26.7572 13.671C26.6107 12.827 26.3256 12.1398 25.739 11.551C25.1499 10.9597 24.4527 10.6731 23.5947 10.5237C22.7753 10.381 21.7528 10.3553 20.4822 10.3234L20.4337 10.3222ZM14.1518 14.5453C13.8547 14.3696 13.4714 14.4681 13.2958 14.7652C13.1201 15.0623 13.2185 15.4456 13.5157 15.6213L15.9673 17.0708C16.6931 17.4998 17.3192 17.7916 18.0004 17.7916C18.6816 17.7916 19.3078 17.4998 20.0335 17.0708L22.4852 15.6213C22.7823 15.4456 22.8807 15.0623 22.7051 14.7652C22.5294 14.4681 22.1462 14.3696 21.849 14.5453L19.3973 15.9948C18.6937 16.4108 18.3196 16.5416 18.0004 16.5416C17.6812 16.5416 17.3072 16.4108 16.6035 15.9948L14.1518 14.5453Z" fill="#003B5B"/>
</svg>
