<svg
  width="20"
  height="20"
  viewBox="0 0 20 20"
  fill="none"
  xmlns="http://www.w3.org/2000/svg"
>
<path
    fill-rule="evenodd"
    clip-rule="evenodd"
    d="M7.58919 2.37789C8.37426 1.80354 9.12567 1.45825 9.99967 1.45825C10.8737 1.45825 11.6251 1.80354 12.4102 2.37789C13.172 2.93524 14.0301 3.75809 15.1129 4.79635L15.1421 4.82435L17.2913 6.80974V11.297C17.2913 12.8284 17.2913 14.0414 17.1638 14.9908C17.0323 15.9678 16.7556 16.7586 16.132 17.3823C15.5083 18.0058 14.7175 18.2826 13.7405 18.414C12.7912 18.5416 11.5782 18.5416 10.0467 18.5416H9.95259C8.42117 18.5416 7.20816 18.5416 6.25882 18.414C5.28181 18.2826 4.49102 18.0058 3.86737 17.3823C3.24374 16.7586 2.96697 15.9678 2.83562 14.9908C2.70798 14.0414 2.70799 12.8284 2.70801 11.2969V6.80974L4.85727 4.82434L4.88647 4.79634C5.96923 3.75809 6.82737 2.93524 7.58919 2.37789ZM9.99592 13.1249C9.42267 13.1249 8.95801 13.5913 8.95801 14.1666C8.95801 14.7419 9.42267 15.2083 9.99592 15.2083C10.5644 15.2083 11.0413 14.7402 11.0413 14.1666C11.0413 13.593 10.5644 13.1249 9.99592 13.1249Z"
    fill="#003B5B"
  />
<path
    fill-rule="evenodd"
    clip-rule="evenodd"
    d="M8.45026 3.55495C7.77745 4.04718 6.99025 4.79959 5.86239 5.88106L2.2431 9.3515C1.9109 9.67 1.38338 9.65892 1.06485 9.32675C0.746313 8.99458 0.757389 8.467 1.08958 8.14851L4.75218 4.63655C5.82648 3.6064 6.69307 2.77543 7.46617 2.20983C8.27021 1.62161 9.06442 1.25 9.99967 1.25C10.9349 1.25 11.7292 1.62161 12.5332 2.20983C13.3063 2.77544 14.1728 3.6064 15.2472 4.63656L18.9098 8.14851C19.2419 8.467 19.253 8.99458 18.9345 9.32675C18.616 9.65892 18.0884 9.67 17.7563 9.3515L14.1369 5.88107C13.0091 4.79959 12.2219 4.04718 11.5491 3.55495C10.8968 3.07777 10.4451 2.91667 9.99967 2.91667C9.55426 2.91667 9.10251 3.07777 8.45026 3.55495Z"
    fill="#003B5B"
  />
</svg>
