<svg
  width="16"
  height="16"
  viewBox="0 0 16 16"
  fill="none"
  xmlns="http://www.w3.org/2000/svg"
>
<path
    fill-rule="evenodd"
    clip-rule="evenodd"
    d="M6.07145 1.90245C6.6995 1.44298 7.30064 1.16675 7.99984 1.16675C8.69904 1.16675 9.30017 1.44298 9.92824 1.90246C10.5377 2.34833 11.2242 3.00662 12.0904 3.83723L12.1138 3.85963L13.8332 5.44794L13.8332 9.03775C13.8332 10.2629 13.8332 11.2333 13.7311 11.9927C13.626 12.7743 13.4046 13.407 12.9057 13.9059C12.4068 14.4048 11.7741 14.6262 10.9925 14.7313C10.233 14.8334 9.26264 14.8334 8.03744 14.8334H7.96217C6.73704 14.8334 5.76662 14.8334 5.00716 14.7313C4.22554 14.6262 3.59291 14.4048 3.094 13.9059C2.59509 13.407 2.37368 12.7743 2.2686 11.9927C2.16648 11.2333 2.16649 10.2629 2.1665 9.03768L2.1665 5.44794L3.88591 3.85961L3.90927 3.83721C4.77548 3.00661 5.46199 2.34833 6.07145 1.90245ZM7.99684 10.5001C7.53824 10.5001 7.1665 10.8731 7.1665 11.3334C7.1665 11.7937 7.53824 12.1667 7.99684 12.1667C8.45164 12.1667 8.83317 11.7923 8.83317 11.3334C8.83317 10.8745 8.45164 10.5001 7.99684 10.5001Z"
    fill="#003B5B"
  />
<path
    fill-rule="evenodd"
    clip-rule="evenodd"
    d="M6.7603 2.84396C6.22206 3.23774 5.5923 3.83967 4.69001 4.70485L1.79458 7.4812C1.52882 7.736 1.1068 7.72713 0.851977 7.4614C0.597148 7.19567 0.606009 6.7736 0.871764 6.51881L3.80184 3.70924C4.66128 2.88512 5.35455 2.22035 5.97304 1.76787C6.61626 1.29729 7.25164 1 7.99984 1C8.74804 1 9.38344 1.29729 10.0266 1.76787C10.6451 2.22035 11.3384 2.88512 12.1978 3.70925L15.1279 6.51881C15.3936 6.7736 15.4025 7.19567 15.1477 7.4614C14.8929 7.72713 14.4708 7.736 14.2051 7.4812L11.3096 4.70485C10.4074 3.83967 9.77764 3.23775 9.23937 2.84396C8.71757 2.46221 8.35617 2.33333 7.99984 2.33333C7.6435 2.33333 7.2821 2.46221 6.7603 2.84396Z"
    fill="#003B5B"
  />
</svg>
