<svg
  width="24"
  height="16"
  viewBox="0 0 24 16"
  fill="none"
  xmlns="http://www.w3.org/2000/svg"
>
<path
    fill-rule="evenodd"
    clip-rule="evenodd"
    d="M10.4922 8C10.4922 7.1716 11.1638 6.5 11.9922 6.5H12.0012C12.8296 6.5 13.5012 7.1716 13.5012 8C13.5012 8.8284 12.8296 9.5 12.0012 9.5H11.9922C11.1638 9.5 10.4922 8.8284 10.4922 8Z"
    fill="#141B34"
  />
<path
    fill-rule="evenodd"
    clip-rule="evenodd"
    d="M16.4922 8C16.4922 7.1716 17.1638 6.5 17.9922 6.5H18.0012C18.8296 6.5 19.5012 7.1716 19.5012 8C19.5012 8.8284 18.8296 9.5 18.0012 9.5H17.9922C17.1638 9.5 16.4922 8.8284 16.4922 8Z"
    fill="#141B34"
  />
<path
    fill-rule="evenodd"
    clip-rule="evenodd"
    d="M4.5 8C4.5 7.1716 5.17157 6.5 6 6.5H6.00898C6.83741 6.5 7.50898 7.1716 7.50898 8C7.50898 8.8284 6.83741 9.5 6.00898 9.5H6C5.17157 9.5 4.5 8.8284 4.5 8Z"
    fill="#141B34"
  />
</svg>
