<svg
  width="20"
  height="20"
  viewBox="0 0 20 20"
  fill="none"
  xmlns="http://www.w3.org/2000/svg"
>
<path
    fill-rule="evenodd"
    clip-rule="evenodd"
    d="M3.08348 13.7501C2.50014 12.9167 2.08348 12.0834 1.83348 11.1667C1.66681 11.4167 1.50014 11.6667 1.41681 12.0001C0.750142 13.5001 1.16681 14.7501 1.83348 15.8334C2.41681 16.6667 3.25014 17.5001 4.00014 18.1667C4.16681 18.2501 4.25014 18.4167 4.41681 18.5001C4.66681 18.7501 5.08348 18.9167 5.50014 18.9167C5.91681 18.9167 6.25014 18.7501 6.58348 18.5001C6.75014 18.3334 6.83348 18.2501 7.00014 18.0834C7.00014 18.0834 7.00014 18.0834 7.08348 18.0001C5.66681 16.7501 4.25014 15.3334 3.16681 13.6667L3.08348 13.7501Z"
    fill="#003B5B"
  />
<path
    fill-rule="evenodd"
    clip-rule="evenodd"
    d="M10.8332 1C7.66649 1 4.58316 2.91667 3.33316 5.83333C2.16649 8.58333 2.74983 11 4.16649 13C5.24983 14.6667 6.83316 16.1667 8.33316 17.5C8.58316 17.75 8.91649 18 9.16649 18.25C9.66649 18.6667 10.2498 18.9167 10.9165 18.9167C11.5832 18.9167 12.2498 18.6667 12.6665 18.25C12.9165 18 13.1665 17.75 13.4165 17.5833C14.8332 16.25 16.4998 14.75 17.5832 13.0833C18.9165 11.0833 19.5832 8.66667 18.3332 5.91667C17.0832 2.91667 13.9998 1.08333 10.8332 1.08333V1ZM10.8332 5.83333C8.99983 5.83333 7.49983 7.33333 7.49983 9.16667C7.49983 11 8.99983 12.5 10.8332 12.5C12.6665 12.5 14.1665 11 14.1665 9.16667C14.1665 7.33333 12.6665 5.83333 10.8332 5.83333Z"
    fill="#003B5B"
  />
</svg>
