<svg
  width="21"
  height="25"
  viewBox="0 0 21 25"
  fill="none"
  xmlns="http://www.w3.org/2000/svg"
>
<path
    d="M19.3829 13.2416L4.71285 0.773093C3.96993 0.146807 2.92778 0.027886 2.05016 0.423782C1.16891 0.841632 0.616769 1.73391 0.630328 2.70952L0.952184 21.6438C0.969167 22.672 1.62342 23.582 2.58727 23.9326C3.55675 24.2807 4.63989 23.9952 5.30919 23.2125L9.3045 18.5463C9.73037 18.0495 10.3441 17.7591 10.9964 17.7492L17.8192 17.6098C18.162 17.6042 18.4855 17.5259 18.7837 17.3914C19.3856 17.1199 19.8672 16.6115 20.103 15.9635C20.451 14.994 20.1574 13.9078 19.3717 13.2467L19.3829 13.2416Z"
    fill="#FAB414"
  />
</svg>
