<svg width="36" height="36" viewBox="0 0 36 36" fill="none" xmlns="http://www.w3.org/2000/svg">
<circle cx="18" cy="18" r="18" fill="#A8DFFC"/>
<path fill-rule="evenodd" clip-rule="evenodd" d="M19.7017 9.05199C19.7685 9.0534 19.8187 9.11336 19.8085 9.17945C19.726 9.67458 19.6721 9.99123 19.6038 10.2237C19.5401 10.4411 19.4833 10.5114 19.4391 10.5506C19.3904 10.5938 19.3147 10.6409 19.0944 10.6713C18.8532 10.7046 18.5241 10.7081 17.9999 10.7081C17.4757 10.7081 17.1465 10.7046 16.9053 10.6713C16.6852 10.6409 16.6093 10.5938 16.5607 10.5506C16.5164 10.5114 16.4597 10.4411 16.3959 10.2237C16.3278 9.99162 16.2739 9.67564 16.1916 9.18191C16.1818 9.11433 16.2332 9.05335 16.3015 9.05192C16.7993 9.0415 17.3487 9.0415 17.9534 9.0415H18.0464C18.6524 9.0415 19.203 9.0415 19.7017 9.05199ZM14.7167 9.15405C14.8306 9.13873 14.9343 9.2194 14.9508 9.3332L14.9559 9.36795L14.9579 9.38105L14.9638 9.41618C15.0391 9.86833 15.1046 10.2616 15.1969 10.5759C15.2961 10.9141 15.445 11.2317 15.7314 11.4858C16.0277 11.7487 16.369 11.8592 16.7346 11.9097C17.0792 11.9573 17.5046 11.9583 18.0002 11.9583C18.4959 11.9583 18.9212 11.9573 19.2659 11.9097C19.6314 11.8592 19.9727 11.7487 20.2691 11.4858C20.5555 11.2317 20.7043 10.9141 20.8036 10.5759C20.8958 10.2616 20.9614 9.86833 21.0367 9.41618L21.0426 9.38106L21.0502 9.3314C21.0675 9.21847 21.1707 9.13883 21.284 9.15405C22.1476 9.27015 22.8587 9.5164 23.4213 10.079C23.9839 10.6416 24.2302 11.3528 24.3463 12.2164C24.4587 13.0523 24.4587 14.1181 24.4587 15.4536V20.5465C24.4587 21.882 24.4587 22.9478 24.3463 23.7837C24.2302 24.6473 23.9839 25.3584 23.4213 25.921C22.8587 26.4837 22.1476 26.7299 21.284 26.846C20.4481 26.9584 19.3822 26.9583 18.0467 26.9583H17.9539C16.6184 26.9583 15.5526 26.9584 14.7167 26.846C13.8531 26.7299 13.1419 26.4837 12.5793 25.921C12.0167 25.3584 11.7705 24.6473 11.6544 23.7837C11.542 22.9478 11.542 21.882 11.542 20.5465V15.4536C11.542 14.1181 11.542 13.0523 11.6544 12.2164C11.7705 11.3528 12.0167 10.6416 12.5793 10.079C13.1419 9.5164 13.8531 9.27015 14.7167 9.15405ZM16.542 24.6665C16.542 24.3213 16.8218 24.0415 17.167 24.0415H18.8337C19.1788 24.0415 19.4587 24.3213 19.4587 24.6665C19.4587 25.0117 19.1788 25.2915 18.8337 25.2915H17.167C16.8218 25.2915 16.542 25.0117 16.542 24.6665Z" fill="#003B5B"/>
</svg>
