<svg width="36" height="36" viewBox="0 0 36 36" fill="none" xmlns="http://www.w3.org/2000/svg">
<circle cx="18" cy="18" r="18" fill="#C0E9FF"/>
<path fill-rule="evenodd" clip-rule="evenodd" d="M18.0013 9.0415C14.8128 9.0415 11.7709 10.9274 10.4976 13.9037C9.31265 16.6737 9.95413 19.0309 11.2898 21.0494C12.3848 22.7043 13.982 24.1813 15.4228 25.5138L15.4235 25.5144C15.6981 25.7683 15.9669 26.017 16.2255 26.2606L16.2269 26.2619C16.7061 26.7105 17.3427 26.9582 18.0013 26.9582C18.6599 26.9582 19.2965 26.7105 19.7757 26.2618C20.0203 26.0328 20.2738 25.7992 20.5325 25.5608C21.9891 24.2188 23.6087 22.7265 24.7152 21.0506C26.0492 19.03 26.6884 16.6703 25.5049 13.9037C24.2317 10.9274 21.1897 9.0415 18.0013 9.0415ZM18 13.8332C16.159 13.8332 14.6667 15.3256 14.6667 17.1665C14.6667 19.0074 16.159 20.4998 18 20.4998C19.8409 20.4998 21.3333 19.0074 21.3333 17.1665C21.3333 15.3256 19.8409 13.8332 18 13.8332Z" fill="#003B5B"/>
</svg>
