<svg
  width="14"
  height="14"
  viewBox="0 0 14 14"
  fill="none"
  xmlns="http://www.w3.org/2000/svg"
>
<g clip-path="url(#clip0_1969_1091)">
<path
      d="M13.0091 8.06469C13.1115 8.35391 12.9601 8.67141 12.6709 8.77385C12.3744 8.87885 12.0319 9.10491 11.6691 9.42308C11.312 9.73619 10.9647 10.1123 10.6571 10.4811C10.3505 10.8486 10.0901 11.2006 9.90613 11.4612C9.81441 11.5912 9.66985 11.808 9.62096 11.8814C9.51357 12.0504 9.32352 12.1486 9.12363 12.1384C8.92363 12.1281 8.74469 12.011 8.65513 11.832C8.4103 11.3423 8.19068 11.1474 8.07996 11.0735C8.03313 11.0423 8.00146 11.0298 7.98891 11.0255C7.70646 10.9993 7.48535 10.7617 7.48535 10.4724C7.48535 10.1656 7.73407 9.91685 8.04091 9.91685C8.37624 9.91685 8.54385 10.0474 8.6963 10.149C8.84869 10.2506 9.00852 10.391 9.16891 10.5832C9.34402 10.3439 9.5598 10.0619 9.80385 9.7693C10.1335 9.37419 10.5215 8.95163 10.9365 8.58769C11.3457 8.2288 11.8121 7.89924 12.2999 7.72646C12.5891 7.62408 12.9066 7.77546 13.0091 8.06469Z"
      fill="#003B5B"
    />
<path
      d="M4.01367 3.9445C4.01367 2.33367 5.31951 1.02783 6.93035 1.02783C8.54118 1.02783 9.84702 2.33367 9.84702 3.9445C9.84702 5.55533 8.54118 6.86117 6.93035 6.86117C5.31951 6.86117 4.01367 5.55533 4.01367 3.9445Z"
      fill="#003B5B"
    />
<path
      d="M7.2653 7.75696C6.6743 7.67362 6.0733 7.67362 5.48227 7.75696C4.66867 7.87174 3.87308 8.14457 3.14816 8.57624C3.08356 8.61468 3.00376 8.65974 2.91342 8.71068C2.51741 8.93407 1.91873 9.27185 1.50864 9.67324C1.25216 9.92429 1.00846 10.2551 0.964157 10.6605C0.917046 11.0915 1.10508 11.496 1.48231 11.8553C2.13311 12.4753 2.91411 12.9722 3.92428 12.9722H7.91513C8.29224 12.9722 8.48074 12.9722 8.52302 12.8683C8.56524 12.7644 8.4273 12.6301 8.15141 12.3614C7.99085 12.205 7.83546 12.0431 7.72969 11.9083C7.68919 11.8567 7.66891 11.8309 7.65085 11.8176C7.63285 11.8042 7.60135 11.792 7.53841 11.7676C7.01924 11.5662 6.65146 11.0626 6.65146 10.4723C6.65146 9.70529 7.2733 9.08346 8.04035 9.08346C8.35385 9.08346 8.60024 9.15501 8.78613 9.23812C8.92591 9.30068 8.9958 9.33196 9.04991 9.31979C9.10402 9.30757 9.14763 9.25646 9.23491 9.15424C9.29374 9.08535 9.35646 9.01251 9.41885 8.94107C9.54802 8.79307 9.61263 8.71907 9.5973 8.63924C9.58196 8.5594 9.49896 8.5169 9.33296 8.43185C8.68513 8.10012 7.94757 7.85318 7.2653 7.75696Z"
      fill="#003B5B"
    />
</g>
<defs>
<clipPath id="clip0_1969_1091">
<rect
        width="13.3333"
        height="13.3333"
        fill="white"
        transform="translate(0.333008 0.333374)"
      />
</clipPath>
</defs>
</svg>
