<svg width="48" height="48" viewBox="0 0 48 48" fill="none" xmlns="http://www.w3.org/2000/svg">
<circle cx="24" cy="24" r="24" transform="matrix(-1 0 0 1 48 0)" fill="#4D768C"/>
<path fill-rule="evenodd" clip-rule="evenodd" d="M33 24C33 23.4477 32.5523 23 32 23H16C15.4477 23 15 23.4477 15 24C15 24.5523 15.4477 25 16 25H32C32.5523 25 33 24.5523 33 24Z" fill="white"/>
<path d="M30.9721 24C30.8788 24.1548 30.6832 24.4329 30.4694 24.6749C30.0436 25.1568 29.4569 25.7072 28.8444 26.2389C28.2369 26.7664 27.6264 27.2564 27.166 27.6156C26.9364 27.7948 26.5401 28.0942 26.4069 28.1948C25.9623 28.5223 25.8673 29.1483 26.1948 29.5929C26.5223 30.0376 27.1483 30.1326 27.593 29.8051L27.5967 29.8023C27.7411 29.6933 28.1597 29.3771 28.3965 29.1923C28.8736 28.82 29.5131 28.307 30.1556 27.7492C30.7931 27.1957 31.4564 26.5784 31.9681 25.9992C32.223 25.7108 32.4614 25.4082 32.6416 25.1094C32.8052 24.838 33 24.4432 33 24C33 23.5569 32.8052 23.162 32.6416 22.8906C32.4614 22.5918 32.223 22.2892 31.9681 22.0008C31.4564 21.4216 30.7931 20.8043 30.1556 20.2508C29.5131 19.693 28.8736 19.18 28.3965 18.8077C28.1597 18.6229 27.7414 18.3069 27.597 18.1979L27.593 18.1949C27.1483 17.8674 26.5223 17.9624 26.1948 18.4071C25.8673 18.8517 25.9623 19.4777 26.4069 19.8052C26.5401 19.9058 26.9364 20.2051 27.166 20.3844C27.6264 20.7436 28.2369 21.2336 28.8444 21.761C29.4569 22.2928 30.0436 22.8432 30.4694 23.3251C30.6832 23.5671 30.8788 23.8452 30.9721 24Z" fill="white"/>
</svg>
