<svg width="22" height="20" viewBox="0 0 22 20" fill="none" xmlns="http://www.w3.org/2000/svg">
<path fill-rule="evenodd" clip-rule="evenodd" d="M12.0452 0.25C13.8818 0.24999 15.3214 0.24999 16.4635 0.37373C17.6291 0.50001 18.5734 0.76232 19.3798 1.34815C19.8679 1.70281 20.2972 2.13209 20.6518 2.62024C21.2377 3.42656 21.5 4.37094 21.6263 5.53648C21.75 6.67859 21.75 8.1182 21.75 9.9547V10.0453C21.75 11.8818 21.75 13.3214 21.6263 14.4635C21.5 15.6291 21.2377 16.5734 20.6518 17.3798C20.2972 17.8679 19.8679 18.2972 19.3798 18.6518C18.5734 19.2377 17.6291 19.5 16.4635 19.6263C15.3214 19.75 13.8818 19.75 12.0453 19.75H9.9547C8.11817 19.75 6.67859 19.75 5.53648 19.6263C4.37094 19.5 3.42656 19.2377 2.62024 18.6518C2.13209 18.2972 1.70281 17.8679 1.34815 17.3798C0.76232 16.5734 0.50001 15.6291 0.37373 14.4635C0.24999 13.3214 0.24999 11.8818 0.25 10.0452V9.9548C0.24999 8.1182 0.24999 6.67861 0.37373 5.53648C0.50001 4.37094 0.76232 3.42656 1.34815 2.62024C1.70281 2.13209 2.13209 1.70281 2.62024 1.34815C3.42656 0.76232 4.37094 0.50001 5.53648 0.37373C6.67861 0.24999 8.11821 0.24999 9.9548 0.25H12.0452ZM12 7C12 6.44772 12.4477 6 13 6H17C17.5523 6 18 6.44772 18 7C18 7.55228 17.5523 8 17 8H13C12.4477 8 12 7.55228 12 7ZM12 10.5C12 9.9477 12.4477 9.5 13 9.5H16C16.5523 9.5 17 9.9477 17 10.5C17 11.0523 16.5523 11.5 16 11.5H13C12.4477 11.5 12 11.0523 12 10.5ZM7.5 4.24988C5.98122 4.24988 4.75 5.4811 4.75 6.99988C4.75 8.5187 5.98122 9.7499 7.5 9.7499C9.0188 9.7499 10.25 8.5187 10.25 6.99988C10.25 5.4811 9.0188 4.24988 7.5 4.24988ZM3.32093 13.6819C3.14531 14.057 3.30705 14.5035 3.68219 14.6791C3.78522 14.7274 3.89363 14.7501 4.00033 14.75H11C11.1067 14.7501 11.2151 14.7274 11.3182 14.6791C11.6933 14.5035 11.8551 14.057 11.6794 13.6819C10.8767 11.9672 9.1036 11.2262 7.45929 11.2505C5.82412 11.2746 4.08074 12.0588 3.32093 13.6819Z" fill="#003B5B"/>
</svg>
