<svg
  width="303"
  height="124"
  viewBox="0 0 303 124"
  fill="none"
  xmlns="http://www.w3.org/2000/svg"
>
<g clip-path="url(#clip0_1447_10426)">
<path
      d="M111.966 35.6143C110.564 34.8517 109.505 33.8246 108.789 32.5252C108.072 31.2257 107.714 29.7629 107.714 28.1366C107.714 26.6038 108.041 25.1876 108.703 23.9115C109.365 22.6354 110.37 21.4526 111.725 20.3711C113.08 19.2973 114.801 18.3091 116.881 17.4065C118.96 16.5039 121.421 15.6635 124.256 14.8854V21.0402C122.465 21.5616 120.9 22.0674 119.56 22.542C118.22 23.0167 117.099 23.5069 116.195 24.0049C115.292 24.5028 114.614 25.0242 114.163 25.5611C113.711 26.1058 113.485 26.6893 113.485 27.3196C113.485 28.0433 113.828 28.6268 114.513 29.0704C115.199 29.5139 116.149 29.7318 117.364 29.7318C118.649 29.7318 119.84 29.5372 120.946 29.1482C122.052 28.7591 122.964 28.2534 123.688 27.6153L125.37 33.2255C124.319 34.3071 123.08 35.1708 121.64 35.801C120.199 36.4313 118.696 36.7503 117.122 36.7503C115.082 36.7503 113.353 36.3691 111.951 35.6143H111.966ZM114.918 6.32614C114.279 5.68809 113.952 4.91776 113.952 4.03849C113.952 3.15923 114.272 2.39668 114.918 1.75862C115.557 1.12835 116.312 0.809326 117.185 0.809326C118.057 0.809326 118.851 1.12835 119.474 1.75862C120.097 2.38889 120.409 3.15144 120.409 4.03849C120.409 4.92554 120.097 5.68809 119.474 6.32614C118.851 6.9642 118.088 7.291 117.185 7.291C116.281 7.291 115.565 6.97198 114.918 6.32614ZM122.722 6.32614C122.091 5.68809 121.772 4.91776 121.772 4.03849C121.772 3.15923 122.091 2.39668 122.722 1.75862C123.353 1.12835 124.124 0.809326 125.027 0.809326C125.931 0.809326 126.647 1.12835 127.294 1.75862C127.933 2.38889 128.26 3.15144 128.26 4.03849C128.26 4.92554 127.94 5.68809 127.294 6.32614C126.655 6.9642 125.9 7.291 125.027 7.291C124.155 7.291 123.353 6.97198 122.722 6.32614ZM125.339 38.4155C123.524 36.6725 122.613 33.7313 122.613 29.5917V14.9554C122.613 14.0684 122.901 13.3369 123.478 12.7456C124.054 12.162 124.778 11.8663 125.651 11.8663C126.523 11.8663 127.239 12.162 127.824 12.7456C128.4 13.3292 128.688 14.0684 128.688 14.9554V27.4752C128.688 28.8836 128.836 30.0041 129.132 30.8367C129.428 31.6693 130.028 32.2606 130.923 32.6263C131.819 32.9843 133.151 33.171 134.927 33.171L134.194 41.03C130.106 41.03 127.154 40.1585 125.339 38.4155ZM133.423 40.7187C133.252 40.5086 133.174 40.2363 133.19 39.8939L133.813 34.3148C133.906 33.5523 134.272 33.1788 134.927 33.1788C135.269 33.1788 135.534 33.28 135.713 33.49C135.892 33.7001 135.97 33.9725 135.931 34.3148L135.308 39.8939C135.238 40.6565 134.864 41.03 134.194 41.03C133.852 41.03 133.595 40.9288 133.423 40.7187Z"
      fill="#003B5B"
    />
<path
      d="M135.713 33.4744C135.892 33.6767 135.962 33.9568 135.931 34.3147L135.331 39.8938C135.238 40.6563 134.872 41.0298 134.217 41.0298C133.859 41.0298 133.586 40.9287 133.415 40.7186C133.244 40.5085 133.174 40.2362 133.213 39.8938L133.812 34.3147C133.882 33.5522 134.256 33.1787 134.926 33.1787C135.269 33.1787 135.534 33.2798 135.713 33.4744ZM151.313 33.1709L150.581 41.0298H134.225L134.934 33.1709H151.321H151.313ZM149.818 40.7186C149.638 40.5085 149.56 40.2362 149.599 39.8938L150.199 34.3147C150.293 33.5522 150.659 33.1787 151.313 33.1787C151.656 33.1787 151.92 33.2798 152.099 33.4899C152.279 33.7 152.349 33.9724 152.318 34.3147L151.718 39.8938C151.648 40.6563 151.274 41.0298 150.604 41.0298C150.261 41.0298 149.997 40.9287 149.818 40.7186Z"
      fill="#003B5B"
    />
<path
      d="M152.1 33.4744C152.28 33.6767 152.35 33.9568 152.318 34.3147L151.719 39.8938C151.625 40.6563 151.259 41.0298 150.605 41.0298C150.247 41.0298 149.974 40.9287 149.803 40.7186C149.631 40.5085 149.561 40.2362 149.6 39.8938L150.2 34.3147C150.27 33.5522 150.644 33.1787 151.314 33.1787C151.656 33.1787 151.921 33.2798 152.1 33.4744ZM167.701 33.1709L166.968 41.0298H150.613L151.322 33.1709H167.708H167.701ZM166.205 40.7186C166.026 40.5085 165.948 40.2362 165.987 39.8938L166.587 34.3147C166.68 33.5522 167.046 33.1787 167.701 33.1787C168.043 33.1787 168.308 33.2798 168.487 33.4899C168.666 33.7 168.736 33.9724 168.705 34.3147L168.106 39.8938C168.035 40.6563 167.662 41.0298 166.992 41.0298C166.649 41.0298 166.384 40.9287 166.205 40.7186Z"
      fill="#003B5B"
    />
<path
      d="M168.487 33.4745C168.666 33.6768 168.736 33.9569 168.705 34.3148L168.105 39.8939C168.012 40.6564 167.646 41.0299 166.992 41.0299C166.633 41.0299 166.361 40.9288 166.19 40.7187C166.018 40.5086 165.948 40.2362 165.987 39.8939L166.587 34.3148C166.657 33.5523 167.031 33.1788 167.7 33.1788C168.043 33.1788 168.308 33.2799 168.487 33.4745ZM167.7 33.171C168.947 33.171 169.936 32.9687 170.668 32.5718C171.4 32.175 172.031 31.5992 172.553 30.8367C173.074 30.0819 173.659 29.117 174.289 27.9654L175.676 25.421C176.852 23.2345 178.191 21.5304 179.695 20.3088C181.198 19.0872 182.989 18.4802 185.069 18.4802C186.899 18.4802 188.511 19.0405 189.921 20.1609C191.331 21.2814 192.436 22.7443 193.246 24.5495C194.049 26.3547 194.454 28.2689 194.454 30.292C194.454 33.6145 193.574 36.2367 191.821 38.1509C190.069 40.0651 187.608 41.0221 184.446 41.0221C182.911 41.0221 181.424 40.7965 179.998 40.3452C178.573 39.8939 177.28 39.2636 176.135 38.4466C174.99 37.6296 174.071 36.6881 173.378 35.5987L175.816 29.4438C176.501 30.2764 177.343 31.0001 178.339 31.6225C179.336 32.245 180.403 32.7352 181.556 33.0854C182.701 33.4355 183.854 33.6145 185.014 33.6145C186.175 33.6145 187.148 33.3577 187.779 32.8597C188.41 32.354 188.729 31.537 188.729 30.4165C188.729 29.6072 188.542 28.8213 188.176 28.0588C187.802 27.304 187.296 26.6737 186.642 26.1758C185.988 25.6778 185.232 25.4288 184.36 25.4288C182.841 25.4288 181.603 26.0046 180.66 27.164C179.71 28.3233 178.744 29.9807 177.771 32.1517L176.603 33.9958C175.824 35.6065 175.053 36.9293 174.297 37.9797C173.534 39.0302 172.599 39.7927 171.478 40.2829C170.356 40.7731 168.861 41.0144 167 41.0144L167.708 33.1554L167.7 33.171Z"
      fill="#003B5B"
    />
<path
      d="M198.114 39.9794C197.397 39.2713 197.039 38.3843 197.039 37.2949C197.039 36.2056 197.397 35.3185 198.114 34.6104C198.83 33.9024 199.726 33.5522 200.816 33.5522H205.645C208.722 33.5522 211.113 33.2954 212.818 32.7974C214.524 32.2917 215.731 31.428 216.424 30.1985C217.118 28.9691 217.468 27.2728 217.468 25.1019V3.08911C217.468 2.20206 217.756 1.47063 218.333 0.879267C218.909 0.295683 219.649 0 220.56 0C221.471 0 222.172 0.295683 222.741 0.879267C223.309 1.46285 223.598 2.20206 223.598 3.08911V27.2106C223.598 28.8213 223.753 30.0507 224.073 30.9066C224.392 31.7626 224.968 32.3539 225.825 32.6807C226.674 33.0075 227.904 33.1709 229.517 33.1709L228.808 41.0299C225.95 41.0299 223.707 40.3996 222.063 39.1468C220.428 37.8941 219.563 35.8243 219.47 32.9531V31.5136L220.334 31.568C220.101 34.6727 218.776 37.0304 216.362 38.6255C213.948 40.2206 210.272 41.0221 205.334 41.0221H200.801C199.718 41.0221 198.815 40.6719 198.098 39.9639L198.114 39.9794ZM200.162 10.8702C200.092 10.6679 200.022 10.4578 199.96 10.2322C199.897 10.0065 199.866 9.77309 199.866 9.53966C199.866 8.73042 200.154 8.03012 200.731 7.45432C201.307 6.87851 202.008 6.58283 202.818 6.58283C203.503 6.58283 204.088 6.76958 204.57 7.15085C205.046 7.53213 205.388 7.97565 205.591 8.48143L215.957 33.4666C215.739 34.2058 215.225 34.8906 214.423 35.5286C213.621 36.1667 212.445 36.5013 210.91 36.5557L200.17 10.8625L200.162 10.8702ZM228.021 40.7186C227.842 40.5085 227.764 40.2362 227.803 39.8938L228.426 34.3148C228.496 33.5522 228.862 33.1787 229.509 33.1787C229.867 33.1787 230.14 33.2799 230.311 33.49C230.482 33.7001 230.56 33.9724 230.545 34.3148L229.922 39.8938C229.828 40.6564 229.462 41.0299 228.808 41.0299C228.465 41.0299 228.2 40.9287 228.021 40.7186Z"
      fill="#003B5B"
    />
<path
      d="M230.856 33.4744C231.035 33.6767 231.105 33.9568 231.074 34.3147L230.475 39.8938C230.381 40.6563 230.015 41.0298 229.361 41.0298C229.003 41.0298 228.73 40.9287 228.559 40.7186C228.387 40.5085 228.317 40.2362 228.356 39.8938L228.956 34.3147C229.026 33.5522 229.4 33.1787 230.07 33.1787C230.412 33.1787 230.677 33.2798 230.856 33.4744ZM246.456 33.1709L245.724 41.0298H229.369L230.077 33.1709H246.464H246.456ZM244.969 40.7186C244.79 40.5085 244.712 40.2362 244.751 39.8938L245.35 34.3147C245.444 33.5522 245.81 33.1787 246.464 33.1787C246.807 33.1787 247.072 33.2798 247.251 33.4899C247.43 33.7 247.5 33.9724 247.469 34.3147L246.869 39.8938C246.799 40.6563 246.425 41.0298 245.755 41.0298C245.413 41.0298 245.148 40.9287 244.969 40.7186Z"
      fill="#003B5B"
    />
<path
      d="M247.243 33.4744C247.422 33.6767 247.492 33.9568 247.461 34.3147L246.861 39.8938C246.768 40.6563 246.402 41.0298 245.748 41.0298C245.389 41.0298 245.117 40.9287 244.945 40.7186C244.774 40.5085 244.704 40.2362 244.743 39.8938L245.343 34.3147C245.413 33.5522 245.787 33.1787 246.456 33.1787C246.799 33.1787 247.064 33.2798 247.243 33.4744ZM262.843 33.1709L262.111 41.0298H245.755L246.464 33.1709H262.851H262.843ZM261.348 40.7186C261.169 40.5085 261.091 40.2362 261.13 39.8938L261.729 34.3147C261.823 33.5522 262.189 33.1787 262.843 33.1787C263.186 33.1787 263.451 33.2798 263.63 33.4899C263.809 33.7 263.879 33.9724 263.848 34.3147L263.248 39.8938C263.178 40.6563 262.804 41.0298 262.134 41.0298C261.792 41.0298 261.527 40.9287 261.348 40.7186Z"
      fill="#003B5B"
    />
<path
      d="M263.63 33.4744C263.809 33.6767 263.879 33.9568 263.848 34.3148L263.248 39.8938C263.155 40.6564 262.789 41.0299 262.134 41.0299C261.776 41.0299 261.503 40.9287 261.332 40.7186C261.161 40.5085 261.091 40.2362 261.13 39.8938L261.729 34.3148C261.799 33.5522 262.173 33.1787 262.843 33.1787C263.186 33.1787 263.451 33.2799 263.63 33.4744ZM262.843 33.1709C264.455 33.1709 265.701 33.0386 266.589 32.7663C267.477 32.494 268.092 32.0504 268.451 31.428C268.801 30.8055 268.98 29.9495 268.98 28.868V27.0005C268.98 26.1524 269.261 25.4443 269.821 24.8762C270.382 24.3082 271.075 24.0203 271.909 24.0203C272.742 24.0203 273.466 24.3082 274.027 24.8762C274.588 25.4443 274.868 26.1524 274.868 27.0005V28.868C274.868 30.4008 275.18 31.498 275.803 32.1438C276.426 32.7974 277.446 33.1165 278.856 33.1165C280.266 33.1165 281.309 32.7897 281.925 32.1438C282.54 31.4902 282.844 30.4008 282.844 28.868V27.0005C282.844 26.1524 283.124 25.4443 283.685 24.8762C284.246 24.3082 284.947 24.0203 285.803 24.0203C286.66 24.0203 287.353 24.3082 287.906 24.8762C288.459 25.4443 288.732 26.1524 288.732 27.0005V28.868C288.732 30.5098 289.02 31.6847 289.588 32.3928C290.157 33.1009 291.279 33.451 292.937 33.451C294.113 33.451 295.056 33.241 295.772 32.813C296.489 32.3928 296.847 31.6147 296.847 30.4942C296.847 29.5371 296.793 28.6501 296.684 27.8409C296.575 27.0316 296.466 26.3235 296.357 25.7244C296.248 25.1252 296.193 24.6506 296.193 24.2849C296.193 23.4367 296.481 22.7209 297.058 22.1295C297.634 21.5459 298.358 21.2502 299.23 21.2502C300.04 21.2502 300.71 21.4992 301.24 21.9972C301.762 22.4952 302.089 23.0866 302.213 23.7713C302.432 24.9852 302.595 26.1134 302.712 27.1561C302.829 28.2066 302.891 29.2181 302.891 30.1908C302.891 32.0193 302.65 33.6222 302.175 34.9995C301.692 36.3845 301.014 37.5361 300.126 38.4543C298.514 40.1739 296.177 41.0299 293.101 41.0299C290.803 41.0299 289.012 40.5397 287.727 39.5515C286.442 38.571 285.538 37.1004 285.017 35.1473L286.863 35.2018C286.481 37.0459 285.577 38.4777 284.137 39.497C282.696 40.5163 280.803 41.0299 278.451 41.0299C275.92 41.0299 273.996 40.5474 272.672 39.5826C271.348 38.6177 270.53 37.256 270.203 35.5053L271.535 35.5831C271.068 37.3727 270.156 38.7267 268.809 39.6448C267.462 40.563 265.242 41.0299 262.15 41.0299L262.859 33.1709H262.843Z"
      fill="#003B5B"
    />
<path
      d="M244.976 69.1898C242.624 68.3805 240.022 69.1509 238.488 71.1039L225.232 88.0123L210.473 70.8938C208.884 69.0497 206.314 68.3961 204.032 69.2365C201.75 70.0846 200.231 72.2633 200.231 74.691V112.912C200.231 116.126 202.841 118.732 206.057 118.732C209.274 118.732 211.883 116.126 211.883 112.912V90.37L221.026 100.976C222.164 102.298 223.83 102.983 225.575 102.999C227.32 102.96 228.955 102.143 230.03 100.766L237.242 91.5683V112.92C237.242 116.133 239.851 118.74 243.068 118.74C246.284 118.74 248.893 116.133 248.893 112.92V74.6988C248.893 72.2166 247.32 70.0068 244.968 69.1976L244.976 69.1898Z"
      fill="#003B5B"
    />
<path
      d="M302.463 110.912L284.004 71.9987C283.07 70.0301 281.052 68.824 278.895 68.8318C276.714 68.8707 274.759 70.178 273.895 72.1777L257.111 111.091C256.2 113.208 256.69 115.666 258.349 117.269C260.008 118.872 262.477 119.285 264.564 118.304L277.018 112.461C278.342 111.838 279.869 111.815 281.208 112.391L295.266 118.39C295.967 118.693 296.707 118.833 297.439 118.833C298.919 118.833 300.375 118.242 301.442 117.129C303.039 115.472 303.444 112.997 302.455 110.912H302.463Z"
      fill="white"
    />
<path
      d="M173.549 72.0066C172.614 70.0379 170.628 68.8319 168.44 68.8396C166.259 68.8785 164.304 70.1858 163.44 72.1855L146.656 111.099C145.744 113.215 146.235 115.674 147.894 117.277C149.553 118.88 152.022 119.292 154.109 118.312L166.563 112.468C167.879 111.846 169.413 111.823 170.753 112.398L184.811 118.398C185.512 118.693 186.252 118.841 186.984 118.841C188.464 118.841 189.92 118.25 190.987 117.137C192.584 115.48 192.989 113.005 192 110.92L173.541 72.0066H173.549Z"
      fill="#003B5B"
    />
<path
      d="M72.011 72.0066C71.0764 70.0379 69.0748 68.8319 66.9018 68.8396C64.721 68.8785 62.7662 70.1858 61.9016 72.1855L45.1176 111.099C44.2064 113.215 44.6971 115.674 46.356 117.277C48.0149 118.88 50.4838 119.292 52.5711 118.312L65.0248 112.468C66.3488 111.846 67.8753 111.823 69.215 112.398L83.273 118.398C83.974 118.701 84.7139 118.841 85.446 118.841C86.9258 118.841 88.3822 118.25 89.4492 117.137C91.0458 115.48 91.4508 113.005 90.4617 110.92L72.0032 72.0066H72.011Z"
      fill="#003B5B"
    />
<path
      d="M132.481 107.745H109.871V74.3798C109.871 71.314 107.386 68.8396 104.326 68.8396C101.265 68.8396 98.7803 71.3218 98.7803 74.3798V113.293C98.7803 116.359 101.265 118.833 104.326 118.833H132.481C135.542 118.833 138.026 116.351 138.026 113.293C138.026 110.235 135.542 107.753 132.481 107.753V107.745Z"
      fill="#003B5B"
    />
<path
      d="M24.7514 89.8798L17.7496 88.4014C15.0471 87.8411 13.8243 87.1408 13.2791 86.6584C12.6171 86.067 12.3133 85.2967 12.3133 84.2463C12.3133 83.1958 12.5703 82.4177 13.1 81.7096C13.6607 80.9626 14.4707 80.379 15.5922 79.9433C16.7994 79.4686 18.2948 79.2274 20.0316 79.2274C21.7684 79.2274 23.4118 79.4064 24.8994 79.7566C26.3558 80.0989 27.82 80.6903 29.2531 81.4995C30.4759 82.192 31.6364 82.4877 32.7267 82.3555C33.8249 82.2232 34.7517 81.7719 35.4994 81.0327C36.2159 80.3168 36.6754 79.4531 36.8702 78.4493C37.0571 77.4922 36.9792 76.5118 36.6443 75.5392C36.286 74.5043 35.6007 73.6406 34.6037 72.9481C32.6177 71.6097 30.3513 70.5826 27.8746 69.8979C22.9211 68.5206 17.0253 68.5362 12.4302 69.9446C10.0703 70.6682 7.99855 71.7264 6.27732 73.0959C4.52493 74.481 3.14638 76.1617 2.18062 78.0992C1.20707 80.0445 0.716398 82.2232 0.716398 84.5731C0.716398 88.3625 1.88466 91.4749 4.19003 93.8248C6.40972 96.0969 9.76652 97.7154 14.1514 98.6336L21.2155 100.104C24.1829 100.727 25.5225 101.419 26.1222 101.894C26.7998 102.423 27.1035 103.1 27.1035 104.073C27.1035 105.318 26.5895 106.275 25.4913 107.084C24.2763 107.979 22.0722 108.453 19.1282 108.453C16.963 108.453 14.8679 108.212 12.9208 107.73C10.9971 107.263 9.14345 106.5 7.46115 105.512C6.26953 104.757 5.10127 104.485 3.97974 104.695C2.89715 104.897 1.98591 105.426 1.27716 106.275C0.622938 107.061 0.210152 107.971 0.0621727 108.975C-0.0935954 109.986 0.0388074 111.021 0.459381 112.04C0.887743 113.091 1.64322 113.978 2.71802 114.686C4.1433 115.604 5.77886 116.39 7.58577 117.02C9.34595 117.627 11.2463 118.086 13.2246 118.382C15.195 118.67 17.1811 118.818 19.1282 118.818C22.0177 118.818 24.6657 118.475 26.9945 117.783C29.3699 117.09 31.4416 116.063 33.1707 114.74C34.9308 113.387 36.3094 111.745 37.2596 109.846C38.2098 107.948 38.6926 105.808 38.6926 103.497C38.6926 99.8085 37.4621 96.7894 35.0321 94.5407C32.7345 92.4087 29.2765 90.8447 24.7514 89.8876V89.8798Z"
      fill="#003B5B"
    />
</g>
<defs>
<clipPath id="clip0_1447_10426">
<rect width="303" height="124" fill="white" />
</clipPath>
</defs>
</svg>
