<svg
  width="16"
  height="16"
  viewBox="0 0 16 16"
  fill="none"
  xmlns="http://www.w3.org/2000/svg"
>
<g clip-path="url(#clip0_2157_503)">
<path
      fill-rule="evenodd"
      clip-rule="evenodd"
      d="M10.5201 8.50514C10.6093 8.14794 10.9713 7.93074 11.3285 8.02007C11.4189 8.04267 11.5083 8.06481 11.5963 8.08654C11.9396 8.17147 12.2623 8.25134 12.5442 8.33507C12.8989 8.44041 13.2456 8.56741 13.5433 8.75694C13.8561 8.95601 14.112 9.22214 14.2796 9.58714C14.441 9.93854 14.5001 10.3376 14.5001 10.775V14.0001C14.5001 14.3683 14.2017 14.6668 13.8335 14.6668C13.4653 14.6668 13.1668 14.3683 13.1668 14.0001V10.775C13.1668 10.4485 13.1211 10.2593 13.0679 10.1435C13.0211 10.0414 12.9529 9.96161 12.8274 9.88174C12.6869 9.79227 12.4811 9.70721 12.1645 9.61321C11.9151 9.53907 11.6321 9.46901 11.2936 9.38527C11.2017 9.36247 11.1057 9.33874 11.0051 9.31361C10.6479 9.22427 10.4307 8.86234 10.5201 8.50514Z"
      fill="#003B5B"
    />
<path
      fill-rule="evenodd"
      clip-rule="evenodd"
      d="M5.48009 8.50514C5.56939 8.86234 5.35222 9.22427 4.99503 9.31361C4.89449 9.33874 4.79848 9.36247 4.70655 9.38527C4.36809 9.46901 4.08507 9.53907 3.83563 9.61321C3.51909 9.70721 3.3133 9.79227 3.17279 9.88174C3.04723 9.96161 2.97911 10.0414 2.93223 10.1435C2.87909 10.2593 2.83333 10.4485 2.83333 10.775V14.0001C2.83333 14.3683 2.53485 14.6668 2.16667 14.6668C1.79848 14.6668 1.5 14.3683 1.5 14.0001V10.775C1.5 10.3376 1.55918 9.93854 1.72053 9.58714C1.88815 9.22214 2.14409 8.95601 2.4568 8.75694C2.75455 8.56741 3.10122 8.44041 3.45598 8.33507C3.73784 8.25134 4.06057 8.17147 4.40387 8.08654C4.49189 8.06481 4.58126 8.04267 4.67164 8.02007C5.02884 7.93074 5.39079 8.14794 5.48009 8.50514Z"
      fill="#003B5B"
    />
<path
      fill-rule="evenodd"
      clip-rule="evenodd"
      d="M0.666504 14.4999C0.666504 14.1317 0.964984 13.8333 1.33317 13.8333H14.6665C15.0347 13.8333 15.3332 14.1317 15.3332 14.4999C15.3332 14.8681 15.0347 15.1666 14.6665 15.1666H1.33317C0.964984 15.1666 0.666504 14.8681 0.666504 14.4999Z"
      fill="#003B5B"
    />
<path
      fill-rule="evenodd"
      clip-rule="evenodd"
      d="M7.47277 4.42937C7.62457 4.35309 7.79637 4.29175 7.99984 4.29175C8.2033 4.29175 8.3751 4.35309 8.5269 4.42937C8.66297 4.49771 8.8137 4.59463 8.97317 4.69719L10.3976 5.61286C10.6812 5.79518 10.9228 5.95045 11.1116 6.09877C11.3129 6.25683 11.4837 6.42875 11.609 6.65815C11.7342 6.88755 11.7864 7.12422 11.8106 7.37901C11.8332 7.61808 11.8332 7.90528 11.8332 8.24241V14.6659C11.8332 14.942 11.6093 15.1659 11.3332 15.1659H9.6665V11.9993C9.6665 11.0788 8.9203 10.3326 7.99984 10.3326C7.07937 10.3326 6.33317 11.0788 6.33317 11.9993V15.1659H4.6665C4.39036 15.1659 4.1665 14.942 4.1665 14.6659V8.24241C4.1665 7.90528 4.16648 7.61808 4.18911 7.37901C4.21322 7.12422 4.26546 6.88755 4.3907 6.65815C4.51594 6.42875 4.68678 6.25683 4.88806 6.09877C5.07694 5.95045 5.31849 5.79518 5.60212 5.61287L7.0265 4.69719C7.18597 4.59463 7.3367 4.49772 7.47277 4.42937ZM7.99984 7.66675C7.63164 7.66675 7.33317 7.96521 7.33317 8.33342C7.33317 8.70161 7.63164 9.00008 7.99984 9.00008H8.00584C8.37404 9.00008 8.6725 8.70161 8.6725 8.33342C8.6725 7.96521 8.37404 7.66675 8.00584 7.66675H7.99984Z"
      fill="#003B5B"
    />
<path
      fill-rule="evenodd"
      clip-rule="evenodd"
      d="M8.00016 11.3333C8.36836 11.3333 8.66683 11.6317 8.66683 11.9999V14.3798C8.66683 14.748 8.36836 15.0465 8.00016 15.0465C7.63196 15.0465 7.3335 14.748 7.3335 14.3798V11.9999C7.3335 11.6317 7.63196 11.3333 8.00016 11.3333Z"
      fill="#003B5B"
    />
<path
      d="M10.6667 3.82131H8.50001V4.66651C8.50001 4.94265 8.27614 5.16651 8.00001 5.16651C7.72388 5.16651 7.50001 4.94265 7.50001 4.66651V1.98007V1.95711C7.49994 1.81942 7.49988 1.67105 7.51661 1.54591C7.53614 1.39969 7.58641 1.21276 7.74308 1.05515C8.00981 0.786806 8.38134 0.823147 8.56594 0.85552C8.79281 0.8953 9.03681 0.98504 9.25714 1.08122C9.70394 1.27625 10.1635 1.54727 10.409 1.69843C11.0471 2.09137 11.1667 2.83001 11.1667 3.32131C11.1667 3.59745 10.9428 3.82131 10.6667 3.82131Z"
      fill="#003B5B"
    />
</g>
<defs>
<clipPath id="clip0_2157_503">
<rect width="16" height="16" fill="white" />
</clipPath>
</defs>
</svg>
