<svg
  width="16"
  height="16"
  viewBox="0 0 16 16"
  fill="none"
  xmlns="http://www.w3.org/2000/svg"
>
<path
    d="M11.3332 13.0001C12.2536 13.0001 12.9998 12.2539 12.9998 11.3334C12.9998 10.4129 12.2536 9.66675 11.3332 9.66675C10.4127 9.66675 9.6665 10.4129 9.6665 11.3334C9.6665 12.2539 10.4127 13.0001 11.3332 13.0001Z"
    fill="#003B5B"
  />
<path
    d="M4.66667 13.0001C5.58714 13.0001 6.33333 12.2539 6.33333 11.3334C6.33333 10.4129 5.58714 9.66675 4.66667 9.66675C3.74619 9.66675 3 10.4129 3 11.3334C3 12.2539 3.74619 13.0001 4.66667 13.0001Z"
    fill="#003B5B"
  />
<path
    fill-rule="evenodd"
    clip-rule="evenodd"
    d="M0.667564 3.99987C0.667684 3.26357 1.2646 2.66675 2.0009 2.66675H10.6664C13.2438 2.66675 15.3331 4.75608 15.3331 7.33342V10.6667C15.3331 11.4031 14.7362 12.0001 13.9998 12.0001H13.7061C13.7655 11.788 13.7972 11.5644 13.7972 11.3334C13.7972 9.97108 12.6928 8.86675 11.3306 8.86675C9.96824 8.86675 8.8639 9.97108 8.8639 11.3334C8.8639 11.5644 8.89564 11.788 8.95504 12.0001H7.03944C7.09884 11.788 7.13057 11.5644 7.13057 11.3334C7.13057 9.97108 6.0262 8.86675 4.6639 8.86675C3.3016 8.86675 2.19723 9.97108 2.19723 11.3334C2.19723 11.5644 2.22899 11.788 2.28838 12.0001H1.99984C1.26338 12.0001 0.666387 11.403 0.666504 10.6665L0.667564 3.99987ZM6.6651 4.00008H4.6651V6.00008H6.6651V4.00008ZM7.99844 6.00008V4.00008H9.9995L9.9987 6.00008H7.99844ZM11.3319 6.39071L12.2746 7.33342H13.9998C13.9998 5.72067 12.8544 4.37543 11.3328 4.0667L11.3319 6.39071ZM2.00058 6.00008H3.33176V4.00008H2.0009L2.00058 6.00008Z"
    fill="#003B5B"
  />
</svg>
