<svg width="22" height="20" viewBox="0 0 22 20" fill="none" xmlns="http://www.w3.org/2000/svg">
<path fill-rule="evenodd" clip-rule="evenodd" d="M7.70208 0.00963906C7.41768 -0.0284409 7.17792 0.0538291 7.01469 0.125049C6.86464 0.190529 6.69535 0.286119 6.53113 0.378839L4.28197 1.66735C4.13616 1.7705 3.93913 1.93471 3.82604 2.20043C3.70258 2.49052 3.74241 2.7829 3.77174 2.95201C3.80348 3.13501 3.86932 3.38696 3.93233 3.62806C4.32857 5.14488 3.36065 6.77659 1.79378 7.19652L1.76618 7.20391C1.52912 7.26742 1.30699 7.32693 1.13327 7.38956C0.970744 7.44815 0.699124 7.55815 0.507724 7.80648C0.331824 8.0347 0.285194 8.2848 0.266844 8.4618C0.249924 8.6251 0.249964 8.8204 0.250004 9.0105V10.9896C0.249964 11.1797 0.249924 11.375 0.266844 11.5382C0.285194 11.7153 0.331814 11.9654 0.507704 12.1936C0.699094 12.4419 0.970714 12.5519 1.13322 12.6105C1.30694 12.6731 1.79374 12.8036 1.79374 12.8036C3.36003 13.2234 4.32731 14.8549 3.93082 16.3719C3.93082 16.3719 3.80192 16.8649 3.77017 17.0479C3.74082 17.217 3.70097 17.5094 3.82441 17.7995C3.93749 18.0652 4.13453 18.2295 4.28035 18.3326L6.52952 19.6211C6.6937 19.7138 6.86312 19.8095 7.01315 19.875C7.17639 19.9462 7.41618 20.0285 7.70059 19.9904C8.00977 19.9489 8.23894 19.7725 8.37072 19.6623C8.51065 19.5453 8.86249 19.1962 8.86249 19.1962C9.4459 18.6176 10.2229 18.3281 11 18.3279C11.7771 18.3281 12.5541 18.6176 13.1375 19.1962C13.1375 19.1962 13.4894 19.5453 13.6293 19.6623C13.7611 19.7725 13.9902 19.9489 14.2994 19.9904C14.5838 20.0285 14.8236 19.9462 14.9869 19.875C15.1369 19.8095 15.3062 19.7139 15.4704 19.6212L17.7196 18.3326C17.8655 18.2295 18.0625 18.0652 18.1756 17.7995C18.299 17.5094 18.2592 17.217 18.2298 17.0479C18.1981 16.8649 18.0692 16.3719 18.0692 16.3719C17.6727 14.8549 18.64 13.2234 20.2063 12.8036C20.2063 12.8036 20.6931 12.6731 20.8668 12.6105C21.0293 12.5519 21.3009 12.4419 21.4923 12.1936C21.6682 11.9654 21.7148 11.7153 21.7332 11.5382C21.7501 11.375 21.75 11.1797 21.75 10.9896V9.0105C21.75 8.8204 21.7501 8.6251 21.7332 8.4618C21.7148 8.2848 21.6682 8.0347 21.4923 7.80648C21.3009 7.55815 21.0293 7.44815 20.8667 7.38956C20.693 7.32693 20.4709 7.26742 20.2338 7.20391L20.2062 7.19652C18.6393 6.77659 17.6714 5.14488 18.0677 3.62806C18.1307 3.38696 18.1965 3.13501 18.2283 2.95201C18.2576 2.7829 18.2974 2.49052 18.174 2.20043C18.0609 1.93471 17.8638 1.7705 17.718 1.66735L15.4689 0.378839C15.3046 0.286119 15.1354 0.190529 14.9853 0.125049C14.8221 0.0538291 14.5823 -0.0284409 14.2979 0.00963906C13.9888 0.0510391 13.7596 0.227489 13.6278 0.337649C13.4879 0.454629 13.136 0.803649 13.136 0.803649C12.5529 1.3818 11.7765 1.67098 11 1.6712C10.2235 1.67098 9.4471 1.3818 8.86405 0.803649C8.86405 0.803649 8.51213 0.454629 8.37221 0.337649C8.24043 0.227489 8.01124 0.0510391 7.70208 0.00963906ZM11 13.5C12.933 13.5 14.5 11.933 14.5 10C14.5 8.067 12.933 6.5 11 6.5C9.067 6.5 7.5 8.067 7.5 10C7.5 11.933 9.067 13.5 11 13.5Z" fill="#003B5B"/>
</svg>
