<svg
  width="16"
  height="16"
  viewBox="0 0 16 16"
  fill="none"
  xmlns="http://www.w3.org/2000/svg"
>
<g clip-path="url(#clip0_1969_283)">
<path
      fill-rule="evenodd"
      clip-rule="evenodd"
      d="M1.15815 7.61111C1.00181 7.57204 0.923647 7.55251 0.880787 7.49084C0.837921 7.42917 0.846514 7.35204 0.863701 7.19777C1.26254 3.61734 4.29914 0.833374 7.98599 0.833374C11.6728 0.833374 14.7094 3.61737 15.1083 7.19777C15.1254 7.35211 15.134 7.42924 15.0911 7.49091C15.0483 7.55257 14.9701 7.57211 14.8138 7.61117L11.8739 8.34617C11.7267 8.38297 11.6531 8.40137 11.5953 8.38017C11.5376 8.35904 11.4821 8.28177 11.3712 8.12724C11.2406 7.94544 11.0732 7.80504 10.8794 7.70451C10.5679 7.54297 10.2193 7.50017 9.90766 7.50017H6.06451C5.75245 7.50017 5.40348 7.54304 5.09177 7.70491C4.89822 7.80537 4.73111 7.94571 4.60069 8.12724C4.48973 8.28171 4.43425 8.35897 4.37653 8.38011C4.31881 8.40131 4.24521 8.38291 4.09802 8.34611L1.15815 7.61111ZM0.905381 9.11417C0.867374 8.87064 0.848374 8.74891 0.927627 8.67651C1.00689 8.60411 1.13121 8.63517 1.37987 8.69731L3.86533 9.31871C4.02761 9.35924 4.10875 9.37957 4.15152 9.43884C4.19429 9.49817 4.18765 9.58504 4.17439 9.75891C4.15257 10.0446 4.14725 10.3385 4.15843 10.6282C4.16735 10.8592 4.17181 10.9748 4.1064 11.037C4.04099 11.0994 3.93041 11.0896 3.70922 11.0703L1.65327 10.8902C1.5369 10.88 1.47872 10.8748 1.43325 10.841C1.38779 10.8072 1.36697 10.755 1.32535 10.6504C1.13099 10.1624 0.988714 9.64804 0.905381 9.11417ZM2.81286 11.9994C2.45072 11.9668 2.26965 11.9506 2.20767 12.069C2.14569 12.1873 2.25759 12.3214 2.48141 12.5896C3.79604 14.1646 5.77397 15.1667 7.98599 15.1667C10.1979 15.1667 12.1759 14.1646 13.4905 12.5896C13.7143 12.3214 13.8262 12.1874 13.7643 12.069C13.7023 11.9506 13.5212 11.9668 13.1591 11.9994L11.8328 12.1184C11.7153 12.129 11.6566 12.1342 11.6145 12.1621C11.5723 12.1899 11.5383 12.2535 11.4701 12.3808C11.3304 12.6415 11.1263 12.8344 10.8794 12.9624C10.5679 13.124 10.2193 13.1668 9.90766 13.1668H6.06451C5.75295 13.1668 5.40443 13.124 5.09299 12.9626C4.84602 12.8345 4.64193 12.6416 4.50218 12.3808C4.43402 12.2536 4.39993 12.19 4.35781 12.1621C4.31568 12.1342 4.25695 12.129 4.13947 12.1184L2.81286 11.9994ZM14.6466 10.6505C14.6049 10.755 14.5841 10.8072 14.5387 10.841C14.4932 10.8749 14.435 10.88 14.3187 10.8902L12.263 11.0703C12.0418 11.0896 11.9312 11.0994 11.8658 11.037C11.8004 10.9748 11.8049 10.8592 11.8137 10.6282C11.8249 10.3386 11.8196 10.0446 11.7977 9.75897C11.7844 9.58511 11.7778 9.49817 11.8205 9.43891C11.8633 9.37957 11.9445 9.35931 12.1068 9.31871L14.5921 8.69737C14.8407 8.63524 14.9651 8.60417 15.0443 8.67657C15.1235 8.74897 15.1045 8.87071 15.0665 9.11424C14.9832 9.64811 14.8409 10.1625 14.6466 10.6505ZM4.63241 5.64649C4.93961 5.33929 5.35626 5.16671 5.7907 5.16671H6.65263C6.92879 5.16671 7.15266 5.39057 7.15266 5.66671C7.15266 5.94285 6.92879 6.16671 6.65263 6.16671H5.7907C5.62147 6.16671 5.45918 6.23393 5.33952 6.35359C5.14425 6.54885 4.82767 6.54885 4.63241 6.35359C4.43715 6.15833 4.43715 5.84175 4.63241 5.64649ZM8.81933 5.66671C8.81933 5.39057 9.04313 5.16671 9.31933 5.16671H10.1812C10.6157 5.16671 11.0323 5.33929 11.3395 5.64649C11.5348 5.84175 11.5348 6.15833 11.3395 6.35359C11.1443 6.54885 10.8277 6.54885 10.6324 6.35359C10.5127 6.23393 10.3505 6.16671 10.1812 6.16671H9.31933C9.04313 6.16671 8.81933 5.94285 8.81933 5.66671ZM5.33889 8.86737C5.38595 8.71264 5.46113 8.63991 5.5526 8.59237C5.66318 8.53497 5.83007 8.50017 6.06451 8.50017H9.90766C10.1417 8.50017 10.3085 8.53491 10.4191 8.59224C10.5105 8.63971 10.5856 8.71231 10.6327 8.86651C10.8817 9.68271 10.8817 10.9843 10.6327 11.8004C10.5856 11.9546 10.5105 12.0273 10.4191 12.0748C10.3085 12.1321 10.1417 12.1668 9.90766 12.1668H6.06451C5.83055 12.1668 5.66383 12.1321 5.55328 12.0748C5.46179 12.0274 5.38675 11.9548 5.33971 11.8007C5.09067 10.985 5.09047 9.68397 5.33889 8.86737Z"
      fill="#003B5B"
    />
</g>
<defs>
<clipPath id="clip0_1969_283">
<rect width="16" height="16" fill="white" />
</clipPath>
</defs>
</svg>
