<svg
  width="16"
  height="16"
  viewBox="0 0 16 16"
  fill="none"
  xmlns="http://www.w3.org/2000/svg"
>
<path
    d="M8.67027 2.00004C8.67027 1.63185 8.37174 1.33337 8.00361 1.33337C7.63541 1.33337 7.33694 1.63185 7.33694 2.00004V4.00007L6.94074 4.00005C6.82367 3.99997 6.67987 3.99987 6.56225 4.01458L6.56003 4.01486C6.47573 4.02537 6.0917 4.07326 5.90879 4.45033C5.72549 4.82821 5.92677 5.16163 5.97032 5.23377L6.19641 5.54609C6.39284 5.79665 6.66331 6.13962 6.91694 6.40029C7.04347 6.53037 7.18834 6.66452 7.34227 6.77044C7.47907 6.86457 7.71254 7.00004 7.99967 7.00004C8.28681 7.00004 8.52027 6.86457 8.65707 6.77044C8.81101 6.66452 8.95587 6.53037 9.08241 6.40029C9.33607 6.13962 9.60647 5.79665 9.80294 5.5461L10.029 5.23377C10.0725 5.16163 10.2739 4.82821 10.0905 4.45033C9.90767 4.07326 9.52361 4.02537 9.43934 4.01486L9.43707 4.01458C9.31947 3.99987 9.17567 3.99997 9.05861 4.00005L8.67027 4.00007V2.00004Z"
    fill="#003B5B"
  />
<path
    fill-rule="evenodd"
    clip-rule="evenodd"
    d="M12.7133 6.6197C12.9736 6.88003 12.9736 7.30216 12.7133 7.56249L12.0061 8.26962C11.7458 8.52996 11.3237 8.52996 11.0633 8.26962C10.803 8.00929 10.803 7.58716 11.0633 7.32683L11.7705 6.6197C12.0308 6.35935 12.4529 6.35935 12.7133 6.6197ZM3.28601 6.62011C3.54635 6.35977 3.96847 6.35977 4.22881 6.62011L4.93592 7.32722C5.19627 7.58756 5.19627 8.00969 4.93592 8.27002C4.67557 8.53036 4.25346 8.53036 3.99311 8.27002L3.28601 7.56289C3.02565 7.30256 3.02565 6.88049 3.28601 6.62011ZM1.33301 11.3338C1.33301 10.9656 1.63149 10.6671 1.99967 10.6671H2.99967C3.36786 10.6671 3.66634 10.9656 3.66634 11.3338C3.66634 11.702 3.36786 12.0004 2.99967 12.0004H1.99967C1.63149 12.0004 1.33301 11.702 1.33301 11.3338ZM12.333 11.3338C12.333 10.9656 12.6315 10.6671 12.9997 10.6671H13.9997C14.3679 10.6671 14.6663 10.9656 14.6663 11.3338C14.6663 11.702 14.3679 12.0004 13.9997 12.0004H12.9997C12.6315 12.0004 12.333 11.702 12.333 11.3338Z"
    fill="#003B5B"
  />
<path
    fill-rule="evenodd"
    clip-rule="evenodd"
    d="M14.6663 14C14.6663 14.3682 14.3679 14.6667 13.9997 14.6667H1.99967C1.63149 14.6667 1.33301 14.3682 1.33301 14C1.33301 13.6318 1.63149 13.3334 1.99967 13.3334H13.9997C14.3679 13.3334 14.6663 13.6318 14.6663 14Z"
    fill="#003B5B"
  />
<path
    d="M4.66699 11.3333C4.66699 9.4924 6.15938 8 8.00033 8C9.84126 8 11.3337 9.4924 11.3337 11.3333C11.3337 11.7015 11.0352 12 10.667 12H5.33366C4.96547 12 4.66699 11.7015 4.66699 11.3333Z"
    fill="#003B5B"
  />
</svg>
