<svg
  width="20"
  height="20"
  viewBox="0 0 20 20"
  fill="none"
  xmlns="http://www.w3.org/2000/svg"
>
<path
    fill-rule="evenodd"
    clip-rule="evenodd"
    d="M3.3335 9.79159C3.3335 8.29581 4.54605 7.08325 6.04183 7.08325C7.5376 7.08325 8.75016 8.29581 8.75016 9.79159C8.75016 11.2873 7.5376 12.4999 6.04183 12.4999C4.54605 12.4999 3.3335 11.2873 3.3335 9.79159ZM0.833496 18.1249C0.833496 15.4238 3.22273 13.3333 6.04183 13.3333C8.86091 13.3333 11.2502 15.4238 11.2502 18.1249C11.2502 18.4701 10.9703 18.7499 10.6252 18.7499H1.4585C1.11332 18.7499 0.833496 18.4701 0.833496 18.1249Z"
    fill="#003B5B"
  />
<path
    fill-rule="evenodd"
    clip-rule="evenodd"
    d="M13.9582 0.833252C11.3384 0.833252 9.1665 2.87208 9.1665 5.44438C9.1665 6.67645 9.66934 7.79245 10.4792 8.615C10.4925 8.62859 10.5224 8.67275 10.5224 8.67275C10.4708 8.92558 10.3603 9.159 10.2028 9.35284C10.0637 9.52392 10.0251 9.75567 10.1012 9.96267C10.1773 10.1696 10.3568 10.3212 10.5736 10.3615C11.3158 10.4995 12.0838 10.3748 12.7415 10.0251C12.8108 9.98825 12.8589 9.96267 12.8952 9.94417C12.9286 9.95008 12.9881 9.961 13.0367 9.97017C13.3404 10.0272 13.6487 10.0558 13.9582 10.0555C16.5778 10.0555 18.7498 8.01667 18.7498 5.44438C18.7498 2.87207 16.5778 0.833252 13.9582 0.833252ZM14.5902 3.95825C14.5902 3.61308 14.3103 3.33325 13.9652 3.33325C13.62 3.33325 13.3402 3.61308 13.3402 3.95825V5.62491C13.3402 5.97009 13.62 6.24991 13.9652 6.24991C14.3103 6.24991 14.5902 5.97009 14.5902 5.62491V3.95825ZM13.9582 6.66657C13.613 6.66657 13.3332 6.94639 13.3332 7.29157C13.3332 7.63675 13.613 7.91657 13.9582 7.91657H13.9649C14.3101 7.91657 14.5899 7.63675 14.5899 7.29157C14.5899 6.94639 14.3101 6.66657 13.9649 6.66657H13.9582Z"
    fill="#003B5B"
  />
</svg>
