<svg width="36" height="36" viewBox="0 0 36 36" fill="none" xmlns="http://www.w3.org/2000/svg">
<circle cx="18" cy="18" r="18" fill="#A8DFFC"/>
<path fill-rule="evenodd" clip-rule="evenodd" d="M19.7541 14.8778C20.2957 15.2029 20.7085 15.7507 20.7085 16.5093C20.7085 16.7922 20.7639 16.8999 20.796 16.9427C20.8256 16.9822 20.8982 17.0506 21.1274 17.1116C21.7363 17.2737 22.269 17.5262 22.7841 17.8919L24.4687 19.0882C25.1313 19.5584 25.6165 19.9027 25.8847 20.4667C26.1265 20.975 26.1259 21.5552 26.1252 22.3182L26.1251 22.4834C26.1251 23.2472 26.1252 23.8766 26.0648 24.3767C26.0019 24.8984 25.8649 25.3684 25.5244 25.7583C25.0886 26.2571 24.3885 26.4166 23.845 26.4827C23.3498 26.5429 22.8226 26.5405 22.4247 26.5387C22.3608 26.5383 22.2998 26.5381 22.2432 26.5381H13.7571C13.6816 26.5381 13.5979 26.5389 13.5082 26.5398C13.126 26.5436 12.6322 26.5484 12.1703 26.4955C11.62 26.4324 10.9242 26.2715 10.4759 25.7583C10.1354 25.3684 9.99841 24.8984 9.93546 24.3767C9.87511 23.8766 9.87513 23.2471 9.87515 22.4833L9.87507 22.3182C9.87438 21.5552 9.87386 20.975 10.1156 20.4667C10.3838 19.9027 10.8689 19.5584 11.5315 19.0882L13.2162 17.8919C13.7354 17.5232 14.2688 17.2725 14.8729 17.1116C15.1021 17.0506 15.1747 16.9822 15.2043 16.9427C15.2365 16.8999 15.2918 16.7922 15.2918 16.5093C15.2918 15.7786 15.7254 15.2523 16.2402 14.9354C16.7461 14.6239 17.3815 14.4735 17.9858 14.4596C18.5885 14.4457 19.235 14.5661 19.7541 14.8778ZM15.7083 21.7502C15.7083 20.4845 16.7344 19.4585 18 19.4585C19.2656 19.4585 20.2916 20.4845 20.2916 21.7502C20.2916 23.0158 19.2656 24.0418 18 24.0418C16.7344 24.0418 15.7083 23.0158 15.7083 21.7502Z" fill="#003B5B"/>
<path d="M13.6287 10.0639C16.4562 9.25668 19.5441 9.25668 22.3716 10.0639C23.5328 10.3955 24.3793 10.8113 25.1519 11.3132C26.5293 12.2079 27.0876 13.7977 26.9333 15.2776C26.8881 15.7118 26.679 16.0968 26.3171 16.3294C25.9612 16.5582 25.5345 16.5907 25.1404 16.4812C25.0543 16.4572 24.9673 16.4332 24.8798 16.4091C24.5808 16.3265 24.2751 16.2421 23.9728 16.1524C23.3725 15.9744 22.8728 15.743 22.5256 15.3026C22.1879 14.8743 22.0678 14.3373 21.9881 13.7499L21.736 11.8929C21.7135 11.7273 21.7023 11.6445 21.6485 11.5866C21.5948 11.5286 21.5148 11.5115 21.3549 11.4773C19.1569 11.0078 16.8434 11.0078 14.6454 11.4773C14.4855 11.5115 14.4055 11.5286 14.3518 11.5866C14.298 11.6445 14.2868 11.7273 14.2643 11.8929L14.0122 13.7499C13.9324 14.3373 13.8124 14.8743 13.4747 15.3026C13.1275 15.743 12.6278 15.9744 12.0275 16.1524C11.7252 16.2421 11.4195 16.3265 11.1205 16.4091L11.1194 16.4093C11.0323 16.4334 10.9457 16.4573 10.8599 16.4812C10.4658 16.5907 10.0391 16.5582 9.6832 16.3294C9.32124 16.0968 9.11214 15.7118 9.06689 15.2776C8.91268 13.7977 9.47091 12.2079 10.8484 11.3132C11.621 10.8113 12.4675 10.3955 13.6287 10.0639Z" fill="#003B5B"/>
</svg>
