<svg
  width="25"
  height="24"
  viewBox="0 0 25 24"
  fill="none"
  xmlns="http://www.w3.org/2000/svg"
>
<path
    d="M10.6131 0.944082C12.9869 0.610289 15.4517 0.999255 17.6104 2.04477C17.9607 2.22822 18.3621 2.36477 18.6228 2.6765C18.82 2.92891 18.6821 3.28477 18.4821 3.49167C18.2186 3.72477 17.8779 3.53581 17.6117 3.41443C15.8628 2.51236 13.9042 1.94822 11.9248 2.03098C10.3331 2.09305 8.77036 2.56477 7.37588 3.32753C7.15243 3.44201 6.9276 3.57305 6.67657 3.61581C6.14277 3.5827 5.89588 2.77029 6.39519 2.50132C7.66691 1.69029 9.12208 1.16891 10.6131 0.944082Z"
    fill="#1D1C1B"
  />
<path
    d="M11.6739 3.62542C11.9235 3.51508 12.2104 3.57163 12.4766 3.55784C14.6697 3.57439 16.8821 4.22818 18.6421 5.55784C19.5552 6.24197 20.358 7.07508 21.0228 8.00197C21.2863 8.34128 21.0435 8.90266 20.6187 8.94542C20.2297 9.02404 20.0187 8.64335 19.8145 8.38956C18.0007 6.0337 15.0242 4.61577 12.0463 4.77853C11.3897 4.90956 11.0752 3.90266 11.6739 3.62542Z"
    fill="#1D1C1B"
  />
<path
    d="M9.36118 3.95234C9.82325 3.69579 10.3846 4.1882 10.2081 4.68062C10.0729 5.1151 9.55014 5.10958 9.19704 5.25579C7.29635 5.85165 5.76532 7.2682 4.66876 8.89303C4.4798 9.16062 4.28256 9.48889 3.92532 9.53855C3.47014 9.51786 3.09635 8.97579 3.38187 8.56889C4.18049 7.49855 5.03014 6.43372 6.12394 5.64751C7.11566 4.93579 8.19704 4.33027 9.36118 3.95234Z"
    fill="#1D1C1B"
  />
<path
    d="M4.52642 4.04477C4.90021 3.73029 5.53055 4.07373 5.47814 4.55649C5.50021 4.97856 4.98848 5.31235 4.61745 5.09167C4.22159 4.9096 4.17193 4.2958 4.52642 4.04477Z"
    fill="#1D1C1B"
  />
<path
    d="M11.3019 6.17994C13.4799 5.82959 15.7916 6.40339 17.5364 7.76063C19.2771 9.08477 20.393 11.1937 20.4743 13.3841C20.5074 14.493 20.455 15.6724 19.8909 16.6586C19.4454 17.4641 18.4785 17.9068 17.5764 17.7965C17.0412 17.7082 16.9254 16.8999 17.4054 16.6572C17.7709 16.5206 18.1985 16.6103 18.5405 16.3937C19.1654 16.042 19.375 15.2792 19.4261 14.6117C19.5309 12.9372 19.1047 11.1896 18.0578 9.85856C17.1985 8.75235 15.9433 7.98821 14.5957 7.63787C12.7088 7.14132 10.5971 7.26546 8.89503 8.27649C6.97641 9.3827 5.73641 11.4668 5.46744 13.6434C5.27572 14.9855 5.46744 16.3496 5.82744 17.6461C5.92123 17.9192 5.9171 18.2655 5.65917 18.4489C5.34054 18.7248 4.79434 18.5289 4.71985 18.1165C4.07158 15.8558 3.98192 13.3579 4.87985 11.1496C5.92399 8.49166 8.52399 6.63787 11.3019 6.17994Z"
    fill="#1D1C1B"
  />
<path
    d="M12.7947 8.88473C13.1203 8.63646 13.6403 8.86128 13.7065 9.25853C13.8403 9.71094 13.3299 10.1799 12.894 9.96887C12.4554 9.79921 12.4003 9.13163 12.7947 8.88473Z"
    fill="#1D1C1B"
  />
<path
    d="M15.005 9.69849C15.2146 9.54815 15.5139 9.56332 15.7112 9.72884C16.9829 10.7054 17.8036 12.2144 18.0339 13.7923C18.0753 14.1564 18.1305 14.5426 18.0036 14.8957C17.7512 15.3592 16.9153 15.1964 16.9333 14.6323C16.8174 13.144 16.1126 11.7164 14.9926 10.7288C14.6436 10.4902 14.6464 9.9247 15.005 9.69849Z"
    fill="#1D1C1B"
  />
<path
    d="M21.491 9.85576C21.8593 9.59231 22.4151 9.90818 22.4027 10.3537C22.4579 10.8268 21.8524 11.184 21.4731 10.8889C21.1158 10.6613 21.1282 10.0696 21.491 9.85576Z"
    fill="#1D1C1B"
  />
<path
    d="M2.43835 10.5164C2.71697 10.3495 3.10455 10.4902 3.24111 10.7771C3.39835 11.046 3.23145 11.3371 3.16249 11.6033C2.91973 12.315 2.83283 13.0653 2.7749 13.8115C2.74869 14.1633 2.33766 14.4171 2.00938 14.286C1.75421 14.2019 1.57766 13.9343 1.60662 13.6653C1.63973 12.7895 1.80524 11.9191 2.06869 11.0833C2.1418 10.8695 2.21628 10.6212 2.43835 10.5164Z"
    fill="#1D1C1B"
  />
<path
    d="M11.4314 11.5454C11.7611 11.4599 12.1211 11.3357 12.4577 11.4433C12.8908 11.6047 12.9501 12.264 12.5625 12.5081C12.2232 12.6667 11.8204 12.6281 11.4908 12.8185C10.8245 13.1509 10.4549 13.904 10.4535 14.6309C10.4728 16.3923 11.0756 18.1936 12.3294 19.4626C13.157 20.3067 14.1873 20.9619 15.3197 21.3136C15.6466 21.3978 15.9652 21.7026 15.8397 22.0681C15.7914 22.4199 15.408 22.5812 15.0921 22.4861C13.448 22.1743 12.0577 21.0736 11.048 19.7799C9.84524 18.2116 9.06869 16.2157 9.288 14.2171C9.40248 13.0102 10.2673 11.9054 11.4314 11.5454Z"
    fill="#1D1C1B"
  />
<path
    d="M22.4548 11.7868C22.8521 11.6033 23.3321 11.9826 23.2728 12.4075C23.2686 12.8337 22.7431 13.1275 22.3804 12.8957C21.9514 12.6668 21.9955 11.9509 22.4548 11.7868Z"
    fill="#1D1C1B"
  />
<path
    d="M14.0352 12.3164C14.4311 12.0667 14.8504 12.4199 14.9856 12.7909C15.18 13.1936 15.3235 13.6226 15.3924 14.0654C15.4311 14.6461 14.5897 14.9495 14.2642 14.4585C14.0683 14.0295 13.9745 13.5592 13.7938 13.1233C13.6531 12.8405 13.7524 12.4667 14.0352 12.3164Z"
    fill="#1D1C1B"
  />
<path
    d="M12.1064 14.1234C12.425 13.9123 12.9409 14.0792 12.9519 14.4958C13.0305 15.3054 13.1409 16.133 13.5478 16.853C14.2567 18.2213 15.7643 19.1206 17.305 19.0903C17.636 19.1151 18.0567 18.9717 18.3036 19.271C18.6112 19.591 18.4347 20.1992 17.9919 20.282C15.916 20.6116 13.745 19.5027 12.6636 17.7234C12.1395 16.8779 11.8471 15.8889 11.8292 14.8944C11.8278 14.6227 11.8526 14.2861 12.1064 14.1234Z"
    fill="#1D1C1B"
  />
<path
    d="M15.3951 15.7537C15.8516 15.5427 16.3675 16.0902 16.1703 16.5413C16.0641 16.9289 15.5358 17.0902 15.231 16.8282C14.8641 16.5537 14.9551 15.8944 15.3951 15.7537Z"
    fill="#1D1C1B"
  />
<path
    d="M19.6994 18.2696C20.1132 17.9565 20.7394 18.4144 20.6097 18.8999C20.5573 19.3179 20.018 19.5606 19.6801 19.2972C19.3325 19.0682 19.3408 18.4834 19.6994 18.2696Z"
    fill="#1D1C1B"
  />
<path
    d="M5.76127 19.6378C6.13506 19.3881 6.67851 19.704 6.66609 20.1468C6.71023 20.6088 6.14058 20.9647 5.75299 20.693C5.37368 20.4709 5.38471 19.8557 5.76127 19.6378Z"
    fill="#1D1C1B"
  />
<path
    d="M10.6065 9.05569C10.852 8.97293 11.1693 8.89431 11.3762 9.10121C11.7279 9.37707 11.6176 10.0226 11.1748 10.1357C9.85067 10.5495 8.72515 11.5619 8.21894 12.8585C7.82308 13.8129 7.84101 14.8764 7.96101 15.886C8.09757 17.0722 8.51136 18.2102 9.08653 19.2516C9.36929 19.6557 8.9486 20.2626 8.47412 20.1495C7.99963 20.0447 7.9017 19.4847 7.69757 19.1164C6.94308 17.2198 6.36653 15.0957 6.9155 13.0667C7.38584 11.2309 8.79136 9.64604 10.6065 9.05569Z"
    fill="#1EAB75"
  />
<path
    d="M9.49511 20.8736C9.75993 20.6516 10.1475 20.7564 10.3489 21.0102C10.7903 21.4488 11.2565 21.8612 11.7641 22.2212C12.2303 22.5191 11.9075 23.3357 11.3613 23.2378C10.6013 22.955 9.93924 22.4254 9.4289 21.8019C9.1889 21.5426 9.20131 21.086 9.49511 20.8736Z"
    fill="#E82026"
  />
</svg>
