<svg
  width="36"
  height="36"
  viewBox="0 0 36 36"
  fill="none"
  xmlns="http://www.w3.org/2000/svg"
>
<circle cx="18" cy="18" r="18" fill="white" />
<path
    fill-rule="evenodd"
    clip-rule="evenodd"
    d="M16.3335 13C16.3335 12.5397 16.7066 12.1666 17.1668 12.1666H25.5002C25.9604 12.1666 26.3335 12.5397 26.3335 13C26.3335 13.4602 25.9604 13.8333 25.5002 13.8333H17.1668C16.7066 13.8333 16.3335 13.4602 16.3335 13Z"
    fill="#003B5B"
  />
<path
    fill-rule="evenodd"
    clip-rule="evenodd"
    d="M16.3335 18C16.3335 17.5397 16.7066 17.1666 17.1668 17.1666H25.5002C25.9604 17.1666 26.3335 17.5397 26.3335 18C26.3335 18.4602 25.9604 18.8333 25.5002 18.8333H17.1668C16.7066 18.8333 16.3335 18.4602 16.3335 18Z"
    fill="#003B5B"
  />
<path
    fill-rule="evenodd"
    clip-rule="evenodd"
    d="M16.3335 23C16.3335 22.5397 16.7066 22.1666 17.1668 22.1666H25.5002C25.9604 22.1666 26.3335 22.5397 26.3335 23C26.3335 23.4602 25.9604 23.8333 25.5002 23.8333H17.1668C16.7066 23.8333 16.3335 23.4602 16.3335 23Z"
    fill="#003B5B"
  />
<path
    fill-rule="evenodd"
    clip-rule="evenodd"
    d="M15.6037 10.6826C15.9631 10.9701 16.0214 11.4946 15.7339 11.8539L12.4006 16.0206C12.2525 16.2057 12.0326 16.319 11.7959 16.3321C11.5592 16.3452 11.3282 16.2569 11.1606 16.0893L9.91058 14.8393C9.58515 14.5138 9.58515 13.9862 9.91058 13.6608C10.236 13.3353 10.7637 13.3353 11.0891 13.6608L11.6807 14.2524L14.4324 10.8128C14.72 10.4534 15.2444 10.3951 15.6037 10.6826Z"
    fill="#003B5B"
  />
<path
    fill-rule="evenodd"
    clip-rule="evenodd"
    d="M15.6037 19.8494C15.9631 20.1369 16.0214 20.6613 15.7339 21.0206L12.4006 25.1873C12.2525 25.3724 12.0326 25.4857 11.7959 25.4988C11.5592 25.5119 11.3282 25.4236 11.1606 25.256L9.91058 24.006C9.58515 23.6806 9.58515 23.153 9.91058 22.8275C10.236 22.5021 10.7637 22.5021 11.0891 22.8275L11.6807 23.4191L14.4324 19.9795C14.72 19.6201 15.2444 19.5619 15.6037 19.8494Z"
    fill="#003B5B"
  />
</svg>
