<svg width="36" height="36" viewBox="0 0 36 36" fill="none" xmlns="http://www.w3.org/2000/svg">
<circle cx="18" cy="18" r="18" fill="#92CDED"/>
<path d="M22.8386 20.3642C22.9355 20.4219 23.0552 20.4894 23.1908 20.5659C23.7848 20.901 24.6827 21.4076 25.2979 22.0097C25.6826 22.3863 26.0482 22.8825 26.1146 23.4905C26.1852 24.137 25.9032 24.7438 25.3373 25.2829C24.3612 26.2129 23.1897 26.9582 21.6744 26.9582H14.3259C12.8106 26.9582 11.6391 26.2129 10.6629 25.2829C10.0971 24.7438 9.81502 24.137 9.88569 23.4905C9.95214 22.8825 10.3177 22.3863 10.7024 22.0097C11.3175 21.4076 12.2155 20.901 12.8095 20.5659C12.945 20.4894 13.0648 20.4219 13.1617 20.3642C16.1234 18.6006 19.8769 18.6006 22.8386 20.3642Z" fill="#003B5B"/>
<path d="M13.625 13.4165C13.625 11.0003 15.5838 9.0415 18 9.0415C20.4163 9.0415 22.375 11.0003 22.375 13.4165C22.375 15.8327 20.4163 17.7915 18 17.7915C15.5838 17.7915 13.625 15.8327 13.625 13.4165Z" fill="#003B5B"/>
</svg>
