<svg
  width="20"
  height="20"
  viewBox="0 0 20 20"
  fill="none"
  xmlns="http://www.w3.org/2000/svg"
>
<path
    fill-rule="evenodd"
    clip-rule="evenodd"
    d="M10.8708 1.875C12.4013 1.87499 13.601 1.87499 14.5528 1.97811C15.5241 2.08334 16.311 2.30193 16.983 2.79013C17.3898 3.08568 17.7475 3.44341 18.043 3.8502C18.5313 4.52213 18.7498 5.30912 18.8551 6.2804C18.9582 7.23216 18.9582 8.43183 18.9582 9.96225V10.0377C18.9582 11.5682 18.9582 12.7678 18.8551 13.7196C18.7498 14.6909 18.5313 15.4778 18.043 16.1498C17.7475 16.5566 17.3898 16.9143 16.983 17.2098C16.311 17.6981 15.5241 17.9167 14.5528 18.0219C13.601 18.125 12.4013 18.125 10.8709 18.125H9.12875C7.59831 18.125 6.39866 18.125 5.4469 18.0219C4.47562 17.9167 3.68864 17.6981 3.0167 17.2098C2.60991 16.9143 2.25218 16.5566 1.95663 16.1498C1.46844 15.4778 1.24985 14.6909 1.14461 13.7196C1.0415 12.7678 1.0415 11.5682 1.0415 10.0377V9.96233C1.0415 8.43183 1.0415 7.23217 1.14461 6.2804C1.24985 5.30912 1.46844 4.52213 1.95663 3.8502C2.25218 3.44341 2.60991 3.08568 3.0167 2.79013C3.68864 2.30193 4.47562 2.08334 5.4469 1.97811C6.39868 1.87499 7.59835 1.87499 9.12884 1.875H10.8708ZM10.8332 7.5C10.8332 7.03977 11.2063 6.66667 11.6665 6.66667H14.9998C15.4601 6.66667 15.8332 7.03977 15.8332 7.5C15.8332 7.96023 15.4601 8.33333 14.9998 8.33333H11.6665C11.2063 8.33333 10.8332 7.96023 10.8332 7.5ZM10.8332 10.4167C10.8332 9.95642 11.2063 9.58333 11.6665 9.58333H14.1665C14.6268 9.58333 14.9998 9.95642 14.9998 10.4167C14.9998 10.8769 14.6268 11.25 14.1665 11.25H11.6665C11.2063 11.25 10.8332 10.8769 10.8332 10.4167ZM7.08317 5.20823C5.81752 5.20823 4.7915 6.23425 4.7915 7.4999C4.7915 8.76558 5.81752 9.79158 7.08317 9.79158C8.34884 9.79158 9.37484 8.76558 9.37484 7.4999C9.37484 6.23425 8.34884 5.20823 7.08317 5.20823ZM3.60061 13.0682C3.45426 13.3808 3.58905 13.7529 3.90166 13.8993C3.98752 13.9395 4.07786 13.9584 4.16678 13.9583H9.99984C10.0888 13.9584 10.1791 13.9395 10.265 13.8993C10.5776 13.7529 10.7124 13.3808 10.566 13.0682C9.89709 11.6393 8.4195 11.0218 7.04924 11.0421C5.6866 11.0622 4.23379 11.7157 3.60061 13.0682Z"
    fill="#003B5B"
  />
</svg>
