<svg
  width="36"
  height="36"
  viewBox="0 0 36 36"
  fill="none"
  xmlns="http://www.w3.org/2000/svg"
>
<rect width="36" height="36" rx="18" fill="#1A4F6B" />
<g clip-path="url(#clip0_1447_7207)">
<path
      d="M12.3269 9.17635C12.7991 9.27395 13.1752 9.59123 13.4089 10.0104L14.1532 11.3458C14.4274 11.8376 14.6581 12.2515 14.8088 12.6113C14.9686 12.993 15.0636 13.3694 15.0202 13.7855C14.9768 14.2017 14.8062 14.5504 14.5711 14.8909C14.3494 15.2118 14.0382 15.5692 13.6685 15.9939L12.5743 17.2508C12.3782 17.476 12.2802 17.5885 12.2712 17.7293C12.2623 17.87 12.3426 17.9903 12.5033 18.2307C13.873 20.28 15.7189 22.1265 17.7698 23.4974C18.0103 23.6581 18.1305 23.7385 18.2712 23.7295C18.412 23.7205 18.5246 23.6225 18.7498 23.4264L20.0067 22.3322C20.4314 21.9625 20.7888 21.6513 21.1098 21.4296C21.4503 21.1945 21.799 21.0239 22.2151 20.9805C22.6312 20.9371 23.0076 21.032 23.3893 21.1919C23.7491 21.3425 24.163 21.5733 24.6547 21.8474L25.9902 22.5918C26.4094 22.8255 26.7267 23.2015 26.8243 23.6738C26.923 24.151 26.7775 24.6305 26.4561 25.0248C25.2904 26.455 23.4227 27.3658 21.4633 26.9705C20.259 26.7275 19.0706 26.3228 17.6334 25.4985C14.7456 23.8424 12.1564 21.2517 10.5021 18.3673C9.67786 16.93 9.2731 15.7417 9.03015 14.5373C8.6349 12.578 9.5456 10.7102 10.9759 9.54448C11.3701 9.2232 11.8497 9.07772 12.3269 9.17635Z"
      fill="white"
    />
<path
      fill-rule="evenodd"
      clip-rule="evenodd"
      d="M19.3069 9.53999C19.4345 9.0978 19.8964 8.84278 20.3386 8.97039C23.5614 9.90041 26.0998 12.4386 27.0299 15.6613C27.1575 16.1035 26.9025 16.5654 26.4604 16.6931C26.0181 16.8207 25.5562 16.5657 25.4286 16.1235C24.6573 13.451 22.5491 11.3429 19.8765 10.5717C19.4344 10.4441 19.1794 9.98219 19.3069 9.53999ZM18.7955 13.4719C18.9754 13.0482 19.4647 12.8507 19.8883 13.0305C21.273 13.6186 22.3817 14.7272 22.9698 16.112C23.1497 16.5356 22.9521 17.0248 22.5284 17.2047C22.1049 17.3847 21.6156 17.1871 21.4357 16.7634C21.0164 15.7761 20.2242 14.9839 19.2369 14.5646C18.8132 14.3847 18.6156 13.8955 18.7955 13.4719Z"
      fill="white"
    />
</g>
<defs>
<clipPath id="clip0_1447_7207">
<rect width="20" height="20" fill="white" transform="translate(8 8)" />
</clipPath>
</defs>
</svg>
